<?xml version="1.0" standalone="no"?>
<!DOCTYPE svg PUBLIC "-//W3C//DTD SVG 1.1//EN" "http://www.w3.org/Graphics/SVG/1.1/DTD/svg11.dtd" >
<!--
2013-9-30: Created.
-->
<svg>
<metadata>
Created by iconfont
</metadata>
<defs>

<font id="iconfont" horiz-adv-x="1024" >
  <font-face
    font-family="iconfont"
    font-weight="500"
    font-stretch="normal"
    units-per-em="1024"
    ascent="896"
    descent="-128"
  />
    <missing-glyph />
    
    <glyph glyph-name="x" unicode="x" horiz-adv-x="1001"
d="M281 543q-27 -1 -53 -1h-83q-18 0 -36.5 -6t-32.5 -18.5t-23 -32t-9 -45.5v-76h912v41q0 16 -0.5 30t-0.5 18q0 13 -5 29t-17 29.5t-31.5 22.5t-49.5 9h-133v-97h-438v97zM955 310v-52q0 -23 0.5 -52t0.5 -58t-10.5 -47.5t-26 -30t-33 -16t-31.5 -4.5q-14 -1 -29.5 -0.5
t-29.5 0.5h-32l-45 128h-439l-44 -128h-29h-34q-20 0 -45 1q-25 0 -41 9.5t-25.5 23t-13.5 29.5t-4 30v167h911zM163 247q-12 0 -21 -8.5t-9 -21.5t9 -21.5t21 -8.5q13 0 22 8.5t9 21.5t-9 21.5t-22 8.5zM316 123q-8 -26 -14 -48q-5 -19 -10.5 -37t-7.5 -25t-3 -15t1 -14.5
t9.5 -10.5t21.5 -4h37h67h81h80h64h36q23 0 34 12t2 38q-5 13 -9.5 30.5t-9.5 34.5q-5 19 -11 39h-368zM336 498v228q0 11 2.5 23t10 21.5t20.5 15.5t34 6h188q31 0 51.5 -14.5t20.5 -52.5v-227h-327z" />
    

    
    <glyph glyph-name="phone" unicode="&#58885;" d="M718.45419219 40.63498388000005l-5.3469 1e-8c-92.2527 0-279.1737 92.9169-370.3761 184.11029999C251.52969219 315.95488389 158.61189218 502.87588389 158.61189218 595.13848388l0 5.346 2.96550001 4.4487c22.221 33.3351 98.6265 142.0668 148.9041 142.06680002 41.9661 0 127.8648-78.0003 153.17279999-139.08330002 15.3819-37.1286 4.9743-58.5648-6.47549999-70.0155-18.5391-18.5391-37.0773-29.9898-51.9777-39.19859999-24.0228-14.8482-32.3253-20.8494-32.3253-37.7838 0-37.4229 42.8535-80.2773 84.303-121.71780001 41.4747-41.4747 84.312-84.3102 121.716-84.3102 16.9443 0 22.9365 8.3106 37.78379999 32.33340002 9.2097 14.9004 20.6685 33.4386 39.20670001 51.97679998 9.2691 9.2781 21.6675 14.175 35.84429999 14.17500001 64.4814 0 173.2464-109.6614 173.2464-160.87950001 0-50.2704-108.7488-126.6849-142.07579999-148.89509999L718.45419219 40.63498388000005zM194.04219219 589.9130839c3.5262-85.3821 90.9342-257.4549 173.65949999-340.19730002 82.7343-82.7244 254.7909-170.1252 340.18110001-173.6604 59.6691 40.4937 121.7772 95.8833 121.77719999 116.4411 0 29.6442-91.2006 125.5626-137.92769999 125.5626-6.2442 0-9.0873-2.052-10.87290001-3.8286-15.6339-15.642-25.4628-31.5414-34.12799999-45.57959998-14.9166-24.1254-30.3336-49.0815-67.83480001-49.08150001-52.0299 0-100.1259 48.0987-146.63609999 94.6089-46.5885 46.5795-94.7034 94.6764-94.70340001 146.7405 0 37.4904 24.9543 52.9083 49.08060001 67.8249 14.0283 8.6742 29.9367 18.5049 45.5706 34.12799999 6.9408 6.9498 3.1905 20.97-1.18170001 31.52430002C408.37539218 649.08088388 331.35789219 711.68128388 310.48239218 711.68128388 289.90029218 711.68128388 234.49989219 649.58218388 194.04219219 589.9130839z"  horiz-adv-x="1024" />

    
    <glyph glyph-name="gear" unicode="&#59020;" d="M449.6795 716.5409999999999c2.1258 11.7576 15.6348 25.1415 29.6442 25.1415 14.0094 0 48.7818-0.126 63.4158 0 14.6349 0.126 29.7423-10.2798 32.2713-25.1415 2.529-14.8617 9.8811-58.2876 12.0069-70.5456 2.1258-12.2571 8.2557-16.8858 8.2557-16.8858s19.3878-8.3808 28.5192-12.0087c9.1314-3.6261 17.6364 2.2527 17.6364 2.2527s51.282 36.5238 61.1649 43.5267c9.8811 7.0047 28.7289 7.1001 36.3978-0.3744 7.6689-7.4763 36.8991-35.8992 48.4056-47.6559 11.5074-11.7576 11.3706-31.1544 4.1283-41.2767-7.2432-10.1214-35.8983-50.157-41.2767-57.7854s-6.2586-15.5646-3.7521-21.7656c2.5056-6.201 9.0054-22.2642 10.1313-25.1415 1.1259-2.8773 7.2099-8.7822 13.1337-9.7569s57.4227-9.4491 73.3698-12.0753c15.948-2.628 27.0936-16.8192 27.0765-35.4564-0.0144-14.8212 0.0486-39.2121-0.0774-56.2851-0.1251-17.073-8.7336-30.9627-26.6688-34.0569-17.937-3.0924-64.1322-11.0349-71.4492-12.4731-7.3179-1.4382-12.7053-5.058-15.5106-11.007-2.8035-5.9481-7.7544-16.3863-10.0053-21.5136-2.2518-5.1273-2.9529-14.8059 1.5003-21.0132 4.4541-6.2082 35.7741-49.7817 42.4026-59.9139 6.6285-10.1313 11.3058-29.0619-3.7521-43.902-15.0579-14.8419-29.0817-28.7064-42.0273-41.2767-12.9456-12.5712-30.3948-13.5882-44.2782-3.753s-46.9053 33.2082-54.4104 38.6496c-7.5042 5.4414-12.9672 9.486-23.6403 4.878-10.6722-4.6062-16.3233-6.9408-22.8906-10.1313-6.5664-3.1896-10.1196-6.5682-11.6325-15.7608-1.512-9.1917-9.0675-55.4103-12.132-71.4204s-14.6331-26.6625-38.7747-26.7669c-24.1416-0.1053-34.0218-0.2511-52.5339 0-18.5121 0.2502-31.4505 10.2267-34.6473 28.7676-3.1977 18.5427-9.6939 56.6001-11.8827 67.0437-2.1897 10.4445-4.8456 16.1856-14.0085 20.0124s-13.6962 5.7537-18.7623 7.7553c-5.0661 2.0025-14.6313 4.0059-23.7654-2.502-9.135-6.5079-40.5261-28.8936-56.0358-39.7755-15.5097-10.881-34.0128-8.3745-45.5301 3.0015-11.5164 11.3787-32.0202 31.5207-41.7771 41.778-9.756 10.2564-14.2578 28.5318-4.2525 42.5277 10.0053 13.9968 29.5191 41.2749 39.2751 55.0341 9.7569 13.7601 7.8813 16.3863 4.2534 27.018-3.627 10.6326-4.8159 11.6334-8.0055 19.2627s-7.9344 11.592-18.2619 13.2579c-10.3266 1.6668-42.2766 6.7554-63.7911 10.7568-21.5136 4.0023-32.7708 15.0102-32.7708 35.7741 0 20.7621 0 42.2775 0 55.1601 0 17.3862 9.9594 32.7924 26.1513 35.6787 16.191 2.8872 51.2244 8.6058 66.033 11.3517 15.5097 2.8773 19.6731 5.0076 23.7654 14.5089 4.0914 9.5022 7.6302 17.3862 9.756 23.6412 2.1258 6.2532 0.5544 11.9862-7.1298 22.8906-7.6842 10.9017-24.0156 34.146-35.2719 49.6557-11.2581 15.5097-13.2588 35.0235-0.5013 47.5308 12.7593 12.5073 34.0227 33.2721 43.5276 43.0281 9.5067 9.7569 26.4132 13.9311 42.0273 3.0024 15.6168-10.9287 41.0265-28.7685 53.7849-37.3986 12.7584-8.6319 17.0658-10.0134 25.8921-6.3801 8.8263 3.6342 25.5168 10.5075 25.5168 10.5075s7.6122 2.7144 9.7569 15.7599C439.8155 657.5415 447.5537 704.7834 449.6795 716.5409999999999zM460.1861 641.8688999999999c-2.9313-18.1197-10.1313-29.0817-24.7662-34.8975s-8.9181-3.5892-23.6403-9.756c-14.7213-6.1668-30.2067-4.3155-43.1532 4.878-12.9456 9.1935-50.7519 36.5274-56.286 40.5261-5.5332 3.9978-11.8206 3.1896-16.1352-0.7506-4.3155-3.9411-35.46-35.4609-41.2767-41.2767-5.8158-5.8167-5.6286-9.9441-0.7506-16.8858 4.8789-6.9417 28.9323-40.338 39.0249-54.4095 10.0926-14.0724 12.7584-29.6442 6.7545-43.9038-6.0039-14.2587-3.4344-8.4546-9.756-24.0156-6.3216-15.561-21.7647-22.7025-38.2743-25.5168-16.5114-2.8143-60.0309-10.1808-64.1664-10.8819-4.1364-0.7011-10.8828-3.2526-10.8828-11.6325 0-8.3808 0-52.1595 0-58.1625 0-6.0039 3.5028-10.8837 10.5075-12.384 7.0038-1.5003 55.1187-9.4923 67.5432-11.6325 12.4245-2.1393 26.7678-7.5042 33.7716-23.6403 7.0038-16.1352 3.7521-8.6697 10.8819-25.1415 7.1298-16.4727 2.439-31.8951-8.6301-47.0061-11.07-15.1083-31.3137-44.2728-36.0234-50.9328-4.7097-6.6582-5.2533-12.7584 0-18.0126 5.2533-5.2524 37.6497-37.6488 40.9014-40.9005s10.2564-4.1292 16.1352-0.3744c5.8788 3.753 47.2122 33.9435 57.4119 41.2749 10.1997 7.3332 25.3917 11.2572 45.0288 3.3786 19.638-7.8795 14.3991-5.85 24.0156-9.7569 9.6174-3.9069 19.3248-18.5751 21.7638-35.6481 2.439-17.073 8.8182-57.411 11.2572-65.2914 2.439-7.8804 5.6286-10.5075 12.7584-10.5075s49.9068 0 57.0366 0c7.1307 0 10.8828 3.1896 12.0078 9.7569 1.1268 6.5664 7.4313 43.7868 10.5075 61.9146 3.0762 18.1269 9.0063 34.2711 29.6442 42.4026 20.6379 8.1306 5.5584 2.2446 19.512 7.8795s27.8937 5.5035 42.8013-5.2866c21.8241-15.7968 50.5251-34.7715 56.6388-38.9916s10.8819-5.4414 16.5114 0c5.6286 5.4405 36.7722 36.7731 41.6511 41.652 4.8789 4.878 4.2534 10.5057 1.1259 15.3855-3.1275 4.8789-37.9476 53.0613-44.2791 61.9137-6.3306 8.8524-6.7536 25.3296-2.2509 37.1493s5.8113 15.399 9.3123 23.6934c4.8186 11.4156 18.0189 22.0941 34.029 24.6582 16.0101 2.5632 67.9428 11.9196 71.6085 12.5613 3.6639 0.6426 7.9416 4.941 7.7544 10.0062s0 54.5985 0 60.039-2.8143 10.6947-9.7569 11.7576c-6.9417 1.062-59.3325 9.756-74.5479 12.258-15.2145 2.5011-25.0164 17.0109-29.5191 28.0179-4.5027 11.0061-2.4435 5.8806-8.0055 19.2618-5.5611 13.3812-4.7529 29.2689 4.7529 43.0272 9.5067 13.7601 38.6793 54.891 41.778 59.2893 3.0978 4.3983 2.6874 8.1927-1.0017 12.0078-3.6891 3.8142-36.3978 36.3987-41.7762 41.7771s-11.1942 5.6286-15.5106 2.5011c-4.3146-3.1275-60.9957-42.3531-66.2913-46.0305-5.2965-3.6765-23.0157-5.8158-31.7718-2.0016-8.7552 3.8142-18.765 7.848-27.5166 11.5074-8.7543 3.6594-20.7639 18.2628-22.4523 28.7694s-12.2364 70.6185-13.1337 75.7989c-0.8973 5.1795-6.4413 8.1297-9.9432 8.0676-3.5037-0.0612-55.9116 0-61.353 0-5.4405 0-9.5688-6.0669-10.3185-9.1935C470.6927 707.0361 463.1174 659.9868 460.1861 641.8688999999999zM660.8834 383.9982c0-82.0782-66.537-148.617-148.6161-148.617-82.0773 0-148.6143 66.5388-148.6143 148.617 0 82.0764 66.537 148.6152 148.6143 148.6152C594.3464 532.6134 660.8834 466.0746 660.8834 383.9982zM512.2673 555.8775c-94.9257 0-171.8793-76.9527-171.8793-171.8793 0-94.9275 76.9536-171.8811 171.8793-171.8811 94.9284 0 171.8811 76.9545 171.8811 171.8811C684.1493 478.9248 607.1957 555.8775 512.2673 555.8775z"  horiz-adv-x="1024" />

    
    <glyph glyph-name="back" unicode="&#59031;" d="M332.6303136 425.62268053C303.93462827 399.61721493 304.32192747 356.81478613 333.57907094 331.21478613L663.41536214 42.60803199999998C672.87340374 34.33224640000003 687.24951254 35.29065387000003 695.52530134 44.74869547000003 703.80108694 54.20673707000003 702.84267947 68.58284587000003 693.38463787 76.85863467000001L363.5483488 365.4653888C354.768832 373.14746347000005 354.66904214 384.17569387 363.19190827 391.89954133L693.6807968 691.40509547C702.99318507 699.84444907 703.7009216 714.23507627 695.2615712 723.5474645300001 686.8222176 732.85985173 672.43159147 733.56758827 663.1192032 725.1282368L332.6303136 425.62268053Z"  horiz-adv-x="1024" />

    
    <glyph glyph-name="arrowdown" unicode="&#59046;" d="M476.066208 243.0303136C502.0716736 214.33462827000005 544.8741024 214.72192746999997 570.4741024 243.97907093000003L859.08085653 573.81536213C867.35664213 583.2734037299999 866.39823573 597.64951253 856.94019307 605.92530133 847.48215147 614.20108693 833.10604267 613.24267947 824.83025493 603.78463787L536.2235008 273.94834879999996C528.54142507 265.16883199999995 517.51319573 265.06904212999996 509.78934827 273.59190827L210.28379307 604.0807967999999C201.84444053 613.3931850700001 187.45381227 614.1009216 178.14142507 605.6615712 168.8290368 597.2222176 168.12130133 582.8315914699999 176.5606528 573.5192032L476.066208 243.0303136Z"  horiz-adv-x="1024" />

    
    <glyph glyph-name="love-o" unicode="&#58891;" d="M773.65148988 731.61428833c-53.79331111 0-105.5009365-20.00954748-145.65038679-56.37869239C612.74952618 661.43965388 599.69226448 645.75355911 588.98139921 628.43802237c-10.71086527 17.31553673-23.76812695 33.0016315-39.01970386 46.81929946C509.81224505 711.60474085 458.10461967 731.61428833 404.31130855 731.61428833 284.51473441 731.61428833 187.05237834 634.1519322500001 187.05237834 514.35535812c0-80.86377382 25.15858412-144.69444752 84.10093188-213.45689893 85.64347029-99.93910789 302.40270495-252.4548769 311.59275769-258.90746713 1.86842679-1.32527948 4.06274199-1.97705626 6.2353313-1.97705626s4.3669045 0.65177679 6.23533131 1.97705626c9.19005275 6.45259023 225.94928742 158.96835923 311.61448359 258.90746713C965.75183598 369.66091059999997 990.9104201 433.4915843 990.9104201 514.35535812 990.9104201 634.1519322500001 893.44806402 731.61428833 773.65148988 731.61428833zM890.34126132 315.02028967C814.40926519 226.46554971 625.7198843 90.35282992999998 588.98139921 64.19485473999998c-36.73848509 26.1579752-225.42786598 162.27069497-301.3381362 250.82543493C232.35086529 379.52446603 208.77827135 439.14031649 208.77827135 514.35535812c0 107.82560707 87.72915602 195.53303719 195.5330372 195.53303719 48.38356375 0 94.9421525-18.01076532 131.05058669-50.7299602 18.20629835-16.51167869 32.97990562-35.97807884 43.8863039-57.87777901 3.69340181-7.38680363 15.77299834-7.38680363 19.46640015 0 10.9063983 21.89970017 25.68000555 41.36610031 43.88630389 57.85605311C678.70933739 691.8776299900001 725.26792614 709.88839531 773.65148988 709.88839531c107.80388118 0 195.53303719-87.70743012 195.53303721-195.53303719C969.18452709 439.14031649 945.61193313 379.52446603 890.34126132 315.02028967z"  horiz-adv-x="1184" />

    
    <glyph glyph-name="jinlingyingcaiwangtubiao91" unicode="&#59264;" d="M862.336 347.597h-289.536c-10.598 0-19.2-8.602-19.2-19.2s8.602-19.2 19.2-19.2h289.536c10.598 0 19.2 8.602 19.2 19.2s-8.602 19.2-19.2 19.2zM862.336 444.774h-289.536c-10.598 0-19.2-8.602-19.2-19.2s8.602-19.2 19.2-19.2h289.536c10.598 0 19.2 8.602 19.2 19.2s-8.602 19.2-19.2 19.2zM862.336 250.419h-289.536c-10.598 0-19.2-8.602-19.2-19.2s8.602-19.2 19.2-19.2h289.536c10.598 0 19.2 8.602 19.2 19.2s-8.602 19.2-19.2 19.2zM399.898 275.738c44.262 20.762 75.162 65.408 75.162 117.427 0 71.68-58.317 129.997-130.022 129.997s-129.997-58.317-129.997-129.997c0-52.352 31.258-97.28 75.955-117.862-58.701-15.539-108.467-55.398-136.192-111.949-2.893-5.888-8.397-22.784-7.962-35.046 1.587-44.928 27.213-73.114 69.658-75.469h244.71c0.205 0 1.459 0 1.638 0 12.314 0 54.093 2.33 74.47 32.333 13.21 19.43 13.798 44.672 1.766 74.982-22.886 57.574-75.802 99.917-139.187 115.584zM253.44 393.165c0 50.509 41.088 91.597 91.597 91.597s91.622-41.088 91.622-91.597-41.088-91.597-91.622-91.597-91.597 41.114-91.597 91.597zM505.549 106.726c-8.32-12.262-31.565-15.488-42.675-15.488l-245.274-0.051c-8.499 0.486-31.053 1.715-32.358 38.451-0.128 3.482 2.586 13.568 4.045 16.794 29.594 60.339 89.702 97.843 156.902 97.843 70.656 0 133.837-39.526 157.184-98.33 4.864-12.186 9.165-28.928 2.176-39.219zM902.81 606.925h-781.619c-38.81 0-70.4-31.565-70.4-70.4v-497.050c0-38.835 31.59-70.4 70.4-70.4h781.619c38.81 0 70.4 31.565 70.4 70.4l0 497.050c0 38.835-31.59 70.4-70.4 70.4zM934.81 39.475c0-17.638-14.362-32-32-32h-781.619c-17.638 0-32 14.362-32 32v497.050c0 17.638 14.362 32 32 32h781.619c17.638 0 32-14.362 32-32l0-497.050z"  horiz-adv-x="1024" />

    
    <glyph glyph-name="bell" unicode="&#58974;" d="M815.03738067 160.17514803999995l-58.04262466 102.11486976L756.99475601 475.70706004c0 44.49925836-16.16533435 91.41479059-45.51992575 132.10347176-29.86101907 41.3942957-71.78517703 73.78485063-118.04456489 91.2051892-0.26948759 0.10154586-0.54157843 0.19658284-0.81497165 0.28511016-1.06102464 0.34239235-5.00309118 1.60130144-10.79511615 3.26639474l0 7.10821627c0 38.50544406-31.32692628 69.83236957-69.83236955 69.83236956s-69.83236957-31.32692628-69.83236958-69.83236956l1e-8-6.59658135c-5.39495444-1.54141522-8.81496998-2.63759062-9.20683325-2.76517433-0.20309171-0.06509347-0.40618343-0.13539423-0.60667191-0.20829974-46.96630477-17.0063431-89.60649101-49.36174728-120.06506907-91.10494498-29.9039811-40.9816026-46.37134978-88.32024245-46.37134979-133.29468412L265.90551444 262.28741376999994l-62.11097174-109.31291496c-7.47274084-13.02782495-7.42587316-29.2478375 0.12888533-42.33685028 7.50919322-13.00439112 21.56419444-21.08250146 36.68152194-21.08250147L394.09165588 89.55514552c8.80064904-57.15605063 58.31731951-101.06295726 117.89745375-101.06295725 59.58013423 0 109.09810632 43.90690739 117.89745375 101.06295725l153.46066884 0c23.39592708 0 42.42928325 19.00992311 42.42928324 42.37590668C825.77651546 142.5386992 821.98416486 152.45895746999997 815.03738067 160.17514803999995zM511.98910963 743.05541937c17.83563491 0 32.44913875-14.06151089 33.33701518-31.67973316-3.74157806 0.70821776-7.53002303 1.35655009-11.29763818 1.90463741-1.61431998 0.23433684-3.22733834 0.24735537-4.8013011 0.05988621-0.64963394 0.09503697-1.31098402 0.19397882-1.98144778 0.29682629-4.65679318 0.7030105-9.93457921 1.49845395-15.82164038 1.49845396-5.88185392 0-11.15703593-0.79544346-15.81252749-1.49715156-0.57021952-0.0859233-1.13262777-0.17054498-1.68722474-0.25256264-1.63124494 0.22001589-3.30284711 0.22261991-4.97965733-0.01301853-3.43433648-0.48299382-6.87387944-1.04540285-10.26525387-1.66118766C479.73264808 729.17096312 494.26673749 743.05541937 511.98910963 743.05541937zM511.98910963 24.944581409999955c-39.4128479 0-72.46214967 27.67778117-80.79021941 64.61056488l161.58174121 0C584.45125931 52.62236256999995 551.40195753 24.944581409999955 511.98910963 24.944581409999955zM783.34723222 126.00753865000001L240.60625159 126.00753865000001c-2.13637098 0-4.09568656 1.0961754-5.11244832 2.85500327-1.08445848 1.87860031-1.11440198 4.1672897-0.04165964 6.03938036l64.52724484 113.56482633c1.5596418 2.74304289 2.37982072 5.84670316 2.37982072 9.00374076L302.35920919 475.70706004c0 78.88818604 61.0486447 160.51030129 142.06408805 190.00549415 2.66362848 0.84100874 23.61464136 7.34645874 44.74791611 10.82115324 1.25760747-0.13799824 2.53995039-0.14711114 3.828803-0.01432094 2.84458875 0.28901502 5.48868902 0.68868956 8.0455636 1.07404396 3.87827391 0.58454046 7.2279887 1.08966651 10.3759134 1.0896665 3.15313196 0 6.50414838-0.50512605 10.38502629-1.09096813 2.55427133-0.38535362 5.19576759-0.78372653 8.03645071-1.07274156 1.16647691-0.11847004 2.32644415-0.12367807 3.46688322-0.02213144 21.93262388-3.67388057 44.31309082-10.67534372 47.69014508-11.75199091 79.5859885-30.16956227 139.54366584-111.359457 139.54366585-189.03820409l0-218.23526906c0-3.15833922 0.82017893-6.26200026 2.38112235-9.00634477l61.53814896-108.26360726c0.85923532-1.51277412 1.93197688-2.89666369 3.18437708-4.10479946 1.08185523-1.04540285 1.67811184-2.52302621 1.67811184-4.16468567C789.32412311 128.60997928999996 786.69955026 126.00753865000001 783.34723222 126.00753865000001z"  horiz-adv-x="1024" />

    
    <glyph glyph-name="user2" unicode="&#59000;" d="M510.17043493-10.850133219999975c134.25981203 0 254.65540048 59.30415708 336.45581869 153.13883826C815.86789841 199.87752079999996 714.43986968 252.78511611 622.50866408 283.21146954999995c-5.01954568 1.63392157-36.69801893 15.91788937-16.90598917 76.10105948l-0.27429625 0c51.59935126 53.1281396 91.03322056 138.67938394 91.03322055 222.86942173 0 129.47899084-86.11011312 197.32507073-186.15796479 197.32507072-100.11583268 0-185.72557203-67.84608067-185.72557203-197.32507072 0-84.53231581 39.21727778-170.41477091 91.12096381-223.42275802 20.22758429-53.07359582-15.94792789-72.77709285-23.51914167-75.5485142C304.73108962 251.62864431000003 204.80181071 198.37402796000003 173.94780748 142.02705576999995 255.74506395 48.34888984999998 376.04026141-10.850133219999975 510.17043493-10.850133219999975z"  horiz-adv-x="1024" />

    
    <glyph glyph-name="more" unicode="&#58947;" d="M215.45502597 455.95768122c-40.79296747 0-73.85820502-33.06523837-73.85820502-73.85820502s33.06523837-73.85820502 73.85820502-73.85820502 73.85820502 33.06523837 73.85820501 73.85820502S256.24799344 455.95768122 215.45502597 455.95768122L215.45502597 455.95768122zM510.88700476 455.95768122c-40.79296747 0-73.85736209-33.06523837-73.85736209-73.85820502s33.06439462-73.85820502 73.85736209-73.85820502 73.85820502 33.06523837 73.85820502 73.85820502S551.67997224 455.95768122 510.88700476 455.95768122L510.88700476 455.95768122zM806.32066941 455.95768122c-40.79296747 0-73.85820502-33.06523837-73.85820503-73.85820502s33.06523837-73.85820502 73.85820503-73.85820502c40.79296747 0 73.85820502 33.06523837 73.85820501 73.85820502S847.11363687 455.95768122 806.32066941 455.95768122L806.32066941 455.95768122zM806.32066941 455.95768122"  horiz-adv-x="1024" />

    
    <glyph glyph-name="cellphone" unicode="&#58926;" d="M702.33865388 668.78600848l-380.67730691 0 0 45.27277404c0 5.31539593 4.31960285 9.63668545 9.63078248 9.63668547l361.41742777 0c5.31455301 0 9.62909665-4.3212887 9.62909665-9.63668547L702.33865388 668.78600848 702.33865388 668.78600848zM702.33865388 207.26560693l-380.67730691 0 0 434.34898023 380.6773069 0L702.33865388 207.26560693 702.33865388 207.26560693zM702.33865388 53.92182441c0-5.30274875-4.31791616-9.62150785-9.62909666-9.62150786l-361.41742777 0c-5.31455301 0-9.6307825 4.31875909-9.63078248 9.62150786l0 126.16814574 380.67730691 2e-8L702.33865388 53.92182441 702.33865388 53.92182441zM692.70955722 750.87279143l-361.41742777 0c-20.33155865 0-36.82159772-16.49172492-36.82159771-36.81316597l0-660.1335856c0-20.33914746 16.49003824-36.79714544 36.82159772-36.79714545l361.41742778 0c20.32987282 0 36.81991103 16.45799799 36.81991102 36.79714545L729.52946826 714.05962546C729.52946826 734.38106653 713.03943002 750.87279143 692.70955722 750.87279143L692.70955722 750.87279143zM471.21335654 125.83566027999996l81.572444 0 0-27.18322641-81.572444 0L471.21335654 125.83566027999996 471.21335654 125.83566027999996zM471.21335654 125.83566027999996"  horiz-adv-x="1024" />

    
    <glyph glyph-name="voice" unicode="&#58935;" d="M512.1073856 169.91777920000004c131.52301973 0 238.53651733 107.0237248 238.53651733 238.57742613L750.64390293 626.8841066699999c0 131.54245227-107.01451947 238.55492587-238.53651733 238.55492586-131.54756587 0-238.56003947-107.01247467-238.56003947-238.55492586l0-218.3889024C273.54836907 276.94048 380.55981973 169.91777920000004 512.1073856 169.91777920000004zM327.0090944 626.8841066699999c0 102.06045653 83.033744 185.09420053 185.09931413 185.09420053 102.04716053 0 185.07579093-83.033744 185.07579094-185.09420053l0-218.3889024c0-102.07886507-83.0286304-185.11158613-185.07579094-185.11158614-102.06557013 0-185.09931413 83.03272107-185.09931413 185.11158614L327.0090944 626.8841066699999zM538.829056 67.67527786999995C716.91454507 81.4032704 857.70853653 230.38721599999997 857.70853653 411.95200427c0 14.77014507-11.9730016 26.7421248-26.7421248 26.7421248s-26.7421248-11.97197867-26.7421248-26.7421248c0-0.16772587 0.0102272-0.332384 0.01431787-0.499088-0.27204373-160.87717547-131.22234027-291.67304107-292.1240608-291.67304107-160.56626773 0-291.27622507 130.19961813-292.1445152 290.5674784 0 0.05522667 0.00409067 0.1073856 0.00409067 0.1615904 0 0.1636352-0.00920427 0.3252256-0.01227307 0.4888608-0.00102293 0.320112-0.01227307 0.63613333-0.01227307 0.9552224l-0.0153408 0c-0.7496544 14.09923947-12.41788587 25.29906453-26.70223786 25.29906453-14.28537493 0-25.95258347-11.199824-26.70223787-25.29906453l-0.03988587 0c0-0.3252256 0.01125013-0.64942827 0.01227307-0.9756768-0.00306773-0.15545387-0.01227307-0.31090773-0.01227307-0.46738347 0-0.44590613 0.01227307-0.88772267 0.03374934-1.3285152 1.42771947-180.30479467 141.66944107-327.846704 318.86209386-341.50515093l0-84.03192-0.11147626 0 0-53.4607264 0.02250026 0c-0.00818133-0.26999893-0.0204544-0.53897387-0.0204544-0.81101867 0-14.8171904 12.0118656-26.829056 26.829056-26.829056 14.80798613 0 26.8208736 12.0118656 26.8208736 26.829056 0 0.72613227-0.0357952 1.4440832-0.09409066 2.1558976l0 52.11584747L538.83212373 67.67527786999995z"  horiz-adv-x="1024" />

    
    <glyph glyph-name="refresh" unicode="&#58957;" d="M771.36799835 566.08367471C761.1217739 577.34024619 745.70887274 593.68038742 738.3473438 601.04796839 679.8149195 662.83219332 598.92172611 698.50816546 512 698.50816548 339.05832783 698.50816549 197.49183451 556.94167217 197.49183452 384 197.49183451 211.05832783000005 339.05832783 69.49183450999999 512 69.49183452 684.94167217 69.49183450999999 826.50816549 211.05832783000005 826.50816548 384L859.61428833 384C859.61428834 192.77432274 703.22567726 36.38571165999997 512 36.38571166999998 320.77432274 36.38571165999997 164.38571166 192.77432274 164.38571167 384 164.38571166 575.22567726 320.77432274 731.61428834 512 731.61428833 608.12433573 731.61428834 697.67006429 692.12232533 762.06886601 624.13702881 769.08076219 617.12513059 782.83355188 602.5869145500001 793.40204261 591.04220544L793.40204262 698.50816547 826.50816548 698.50816548 826.50816548 571.04959332C826.50816548 550.3204476000001 809.16526973 532.97755185 788.43612469 532.97755186L660.97755184 532.9775518399999 660.97755186 566.08367471 771.36799835 566.08367471Z"  horiz-adv-x="1024" />

    
    <glyph glyph-name="restaurant3" unicode="&#58982;" d="M224.11135052 408.82115318c2.18938785 92.91062992 40.39808948 172.1096723 116.7766566 231.28503941 117.40288948 90.95789985 281.61547378 85.50506192 392.9004563-13.40453926 67.46688475-59.96544 101.02981215-136.13526282 99.96667258-227.01791763-1.59713659-136.52605155-101.63541333-258.72035082-243.13613274-286.49669215-96.57457778-18.95689482-184.84307437 2.8957203-260.40972326 66.60278045-69.31524267 58.43505303-104.19253097 134.45559941-106.09792948 229.03254282zM256.4278803 403.74575408c0.26335763-5.91644445 0.6432237-14.51865125 1.02915792-23.11964445 0.04126341-0.92114489 0.05582697-1.84835792 0.1759763-2.76100741 11.27947378-85.71501985 53.53684385-152.10420148 126.61069748-197.75366637 101.50434133-63.41214815 231.0593043-53.01255585 323.76240356 24.4813369 110.52889125 92.39483733 125.73567052 256.78703882 34.01197036 367.68123258-73.99135763 89.45542637-195.1128083 122.90791348-305.0336711 84.24774164-107.67928889-37.87131259-181.46797037-140.0625683-180.55653452-252.77599289zM977.79234134 375.83712711c0-83.04382103 0.01941808-166.08642845-0.01092267-249.12903586-0.01092267-27.6112877-12.66786608-45.98199941-35.38458548-51.60838636-28.66593185-7.09973333-56.52358637 11.32316445-57.94960119 40.77188741-1.70879052 35.28628148-0.81070459 70.70363497-0.87502696 106.06516148-0.08374045 45.51839289-0.15291733 91.03921303 0.15655822 136.5563923 0.05097245 7.41891792-2.04253867 11.4238957-9.15076741 14.5453511-25.12577422 11.0306797-25.198592 11.36442785-21.53464415 38.62619023 9.81340918 73.03501748 19.63774103 146.07003497 29.99364267 219.02980741 1.26096118 8.88619615 4.62271525 17.97264118 9.05731793 25.80662043 9.93113125 17.54787082 29.20721067 25.41097718 48.00876089 21.13293275 20.39019141-4.63727882 35.38094459-19.6074003 36.68316918-39.80341097 1.441792-22.36355318 0.9381357-44.86303289 0.97090371-67.30425836 0.09587675-64.89763082 0.03519525-129.794048 0.03519526-194.69046519zM945.43212089 375.51672888999997c0 61.52252682 0.00121363 123.04505363 0 184.56758044 0 23.37814755 0.03762252 46.75750875-0.032768 70.1356563-0.02548622 8.51603911-4.44673897 14.12058075-12.64602074 15.76626252-8.60099318 1.72578133-13.02588682-3.90910103-15.67038578-11.0464569-1.2658157-3.41515378-1.93816652-7.10944237-2.43575467-10.73940858-9.32431645-67.85281897-18.58309689-135.71656059-27.85644088-203.57787497-2.26463289-16.56725808-2.57896297-17.32092208 13.39240296-23.91821273 12.24916385-5.06083555 15.95922963-13.06593659 15.90340267-25.69496652-0.36287525-82.13117155-0.20146252-164.26355675-0.16748089-246.39715556 0.00485452-11.96396089 5.95528059-19.23967052 15.13517511-18.89499971 9.25149867 0.34709808 14.35723852 7.07060622 14.35602489 18.78941393-0.00849541 83.67126755-0.00485452 167.34132148 0.0206317 251.01137541zM81.43583764 278.16300089000003c0.00121363 52.30622341 0.07281778 104.61123318-0.08009956 156.91745659-0.0206317 7.31211852 2.53769955 13.697024 9.17382637 15.32207407 5.19676208 1.27309748 12.77709275 0.36651615 16.67405747-2.80105718 3.68457955-2.9940243 5.43706075-10.18356622 5.48317867-15.55145007 0.40656592-47.69078992 0.24758045-95.38522075 0.24758045-143.07843793 0-53.53927111-0.03398163-107.07975585 0.0121363-160.62024059 0.00849541-10.74911763 4.85209125-16.69468918 13.60357451-17.20441363 9.4250477-0.54977422 15.97743408 5.11423525 16.11214697 14.69948207 0.2415123 17.22747259 0.06917689 34.46222697 0.06917688 51.69334045 0.00364089 84.31085037 0.00849541 168.62048711 0.01334994 252.93133748 0 1.53766875-0.05825422 3.080192 0.00606814 4.61543348 0.42841125 10.00273541 6.81088948 17.12431408 15.54052741 17.37432178 8.8594963 0.25364859 15.92039348-7.26600059 15.94102518-17.63767941 0.10073125-49.84498252 0.07524503-99.68996503 0.06310875-149.53616118-0.01334992-53.22858192 0.01577718-106.45837748-0.12864475-159.68817304-0.07160415-26.26537245-19.97270282-46.00020385-46.03904-46.05238993-26.77873778-0.0533997-46.59002785 19.431424-46.65799111 46.31574756-0.12379022 50.76612741-0.03519525 101.53468208-0.03398162 152.30080948zM205.39839526 592.502784c0-16.61701689-0.11772208-33.23524741 0.02548623-49.84983703 0.26457125-30.3880723-12.58776652-53.61815703-39.03761067-68.24846222-26.86976-14.86089482-54.29900325-14.04654933-80.5643757 1.94059377-23.29440711 14.17883497-35.31419497 35.66736118-35.7292563 62.79319703-0.56433778 36.9173997-0.196608 73.84936297-0.10922667 110.77525808 0.02669985 11.35350518 6.45772325 18.54790163 16.07452444 18.54426074 9.73695052-0.00364089 15.96165689-7.01113837 15.98957038-18.54304712 0.0861677-35.69284741 0.0121363-71.38569482 0.0412634-107.07854222 0.0206317-26.07725985 19.32341097-45.98806755 44.85817838-46.35094281 26.017792-0.36894341 46.38613808 19.300352 46.5596871 45.56208356 0.23665778 35.99868208 0.03762252 72.00100503 0.07645867 108.00211437 0.01456355 13.39240297 10.18963437 21.58440297 21.49459437 17.3136403 7.64586667-2.88843852 10.40566045-8.8352237 10.35832889-16.70075734-0.11772208-19.38530608-0.03883615-38.77303941-0.03883614-58.15834548zM143.49114785 591.15201422c0-20.60136297 0.08009955-41.20393955-0.04004977-61.80530252-0.04611792-8.00388741-4.14333155-13.64969245-11.85958874-15.58057718-6.78540325-1.69786785-13.38754845 0.3155437-16.74930252 6.61428148-2.17603792 4.07900918-2.77193008 9.38621155-2.81440712 14.155776-0.24758045 27.98265837-0.14684918 55.96895763-0.11408118 83.95282963 0.01456355 11.68239882-0.17354903 23.37936118 0.34345718 35.04234192 0.35437985 8.01116918 5.18583941 13.06593659 13.10234549 14.41549275 7.110656 1.212416 12.93850548-1.71485867 16.09030163-8.04272355 1.67723615-3.37024948 2.00248889-7.66649837 2.04253867-11.55375408 0.19418075-19.06490785 0.08859497-38.13224297 0.08859496-57.19957808-0.03155437 0.00242725-0.06068148 0.00242725-0.0898086 0.00121363zM331.61951764 405.50066252c0.95755378 108.07978667 89.83407882 194.347008 197.88352473 193.90160593 109.92935822-0.45268385 200.99405748-89.76126103 197.02306133-200.92002608-3.7234157-104.27020325-93.76745245-189.52161659-205.01966695-186.5567194-102.75802075 2.73673482-190.7959277 90.94819082-189.88691911 193.57635318zM363.82803437 405.72032948c0.39564325-89.90082845 75.06906075-162.48316208 166.4408083-161.78289778 91.14237155 0.69905067 164.8351763 73.75712711 164.46016475 163.0450726-0.3725843 89.04400592-75.62247585 160.85204385-167.9809043 160.29741511-89.26610015-0.5364243-163.30843022-73.95980325-162.92128237-161.55958993z"  horiz-adv-x="1024" />

    
    <glyph glyph-name="chat2" unicode="&#59156;" d="M773.37257385 664.02138518c26.6397686 0 48.31282425-21.99842262 48.31282425-49.03864287l0-351.01534653c0-16.47691727-5.01815987-44.11781501-38.62550926-44.11781502l-173.80714416 0-18.08984756 0-11.58111764-13.89761924-66.88516044-80.26413918-66.88794136 80.26413918-11.58111764 13.89761924-18.08984756 0-173.80714417 0c-33.60734939 0-38.62550926 27.64089775-38.62550926 44.11781502L203.70505905 614.98274231c0 27.04022026 21.65637017 49.03864288 48.27667237 49.03864287L773.37257385 664.02138518M773.37257385 702.645504L251.98034097 702.645504C203.98315048 702.645504 165.08094025 663.40958404 165.08094025 614.98274231l0-351.01534653c0-48.38512802 29.25243759-82.74193382 77.24962806-82.74193381l173.80714417 0 96.55890656-115.87096597 96.55751609 115.87096597 173.80714417 0c47.99858093 0 77.24962807 34.35541534 77.24962807 82.74193381L860.31090737 614.98274231C860.30951691 663.40541267 821.37393569 702.645504 773.37257385 702.645504L773.37257385 702.645504zM317.16219139 396.06777763c-21.33239364 0-38.62133789 17.28199196-38.62133789 38.6408043 0 21.32822227 17.2903347 38.60882377 38.62133789 38.60882377 21.33517456 0 38.62550926-17.28060151 38.62550927-38.60882377C355.78213882 413.35394096 338.49736595 396.06777763 317.16219139 396.06777763L317.16219139 396.06777763 317.16219139 396.06777763zM510.28278542 396.06777763c-21.33239364 0-38.62411881 17.28199196-38.62411881 38.6408043 0 21.32822227 17.29172515 38.60882377 38.62411881 38.60882377 21.33378411 0 38.62411881-17.28060151 38.6241188-38.60882377C548.90551377 413.35394096 531.61656952 396.06777763 510.28278542 396.06777763L510.28278542 396.06777763zM703.39920807 396.06777763c-21.33517456 0-38.62133789 17.28199196-38.62133789 38.6408043 0 21.32822227 17.28616333 38.60882377 38.6213379 38.60882377 21.33378411 0 38.62550926-17.28060151 38.62550925-38.60882377C742.02471733 413.35394096 724.73299217 396.06777763 703.39920807 396.06777763L703.39920807 396.06777763zM703.39920807 396.06777763"  horiz-adv-x="1026" />

    
    <glyph glyph-name="confirmed" unicode="&#58922;" d="M435.06208606 248.18336452999995M840.3989862 632.0563177199999L395.30454156 186.96103015000006 180.91380435 401.35261029c-9.02116489 9.01947821-23.60224759 9.01947821-32.62256955-1e-8-9.02032195-9.01947821-9.02032195-23.60056091 0-32.62088286l230.70370826-230.7028645c4.49835672-4.5008855 10.4039772-6.75976081 16.31044143-6.75976081 5.90646424 0 11.81208554 2.25887449 16.30959852 6.75976081l461.40741567 461.405729c9.02032195 9.01947821 9.02032195 23.60140466 0 32.62172663C863.99954712 641.07663968 849.3973855 641.07663968 840.3989862 632.0563177199999z"  horiz-adv-x="1024" />

    
    <glyph glyph-name="trash" unicode="&#58896;" d="M725.91719818 569.41282654L298.06426239 569.41282654c-11.82815552 0-21.39450073 10.38208008-21.39450073 23.19282531 0 12.79220581 9.60342407 23.19282532 21.39450073 23.19282532l427.85293578 0c11.82815552 0 21.39450073-10.38208008 21.39450075-23.19282532C747.31169892 579.75782776 737.70827484 569.41282654 725.91719818 569.41282654M704.50415803 105.90856932999998c0-25.60295105-19.16976929-46.34857177-42.77046205-46.34857177L362.26630402 59.559997560000056c-23.61923218 0-42.77046203 20.76416016-42.77046205 46.34857177L319.49584197 523.04571533l385.04539491 0L704.54123688 105.90856932999998 704.50415803 105.90856932999998zM447.82576752 685.28425598c0 12.81074524 9.60342407 23.19282532 21.39450073 23.19282532l85.55946349 0c11.82815552 0 21.39450073-10.38208008 21.39450074-23.19282532L576.17423248 662.09143067l-128.32992554-1e-8C447.82576752 662.09143067 447.82576752 685.28425598 447.82576752 685.28425598zM747.31169892 662.09143067l-128.36700439-1e-8L618.94469452 708.44000244c0 25.60295105-19.16976929 46.34857177-42.77046205 46.34857178l-128.32992553 0c-23.61923218 0-42.77046203-20.76416016-42.77046202-46.34857178L405.07384491 662.09143067 276.66976167 662.09143067C253.06906891 662.09143067 233.89929962 641.3272705100001 233.89929962 615.76139831l-1e-8-46.34857177c0-25.56587219 19.13269043-46.34857177 42.77046205-46.34857178l0-417.11860656c0-51.18736268 38.32099914-92.69714356 85.57800292-92.69714356l299.44885254 0c47.25700378 0 85.57800293 41.52832031 85.57800293 92.69714356L747.27462005 523.04571533C770.91239166 523.04571533 790.08216095 543.80987549 790.08216095 569.39428711l-1e-8 46.34857177C790.08216095 641.3272705100001 770.91239166 662.09143067 747.31169892 662.09143067M511.99073029 105.90856932999998c11.82815552 0 21.39450073 10.38208008 21.39450073 23.19282533l-1e-8 278.09143066c0 12.79220581-9.60342407 23.19282532-21.39450073 23.19282531-11.79107666 0-21.39450073-10.38208008-21.39450073-23.19282531l1e-8-278.09143066C490.59622955 116.29064941000001 500.19965363 105.90856932999998 511.99073029 105.90856932999998M405.01822662 105.90856932999998c11.82815552 0 21.39450073 10.38208008 21.39450074 23.19282533l0 278.09143066c0 12.79220581-9.60342407 23.19282532-21.39450073 23.19282531s-21.39450073-10.38208008-21.39450074-23.19282531l0-278.09143066C383.62372588 116.29064941000001 393.22714996 105.90856932999998 405.01822662 105.90856932999998M618.94469452 105.90856932999998c11.82815552 0 21.39450073 10.38208008 21.39450073 23.19282533l0 278.09143066c0 12.79220581-9.60342407 23.19282532-21.39450073 23.19282531s-21.39450073-10.38208008-21.39450074-23.19282531l0-278.09143066C597.55019378 116.29064941000001 607.15361787 105.90856932999998 618.94469452 105.90856932999998"  horiz-adv-x="1024" />

    
    <glyph glyph-name="restaurant2" unicode="&#58919;" d="M435.11047607 546.96392868c0-23.25504-15.589376-42.92608-36.864-49.143808L398.24647607 726.16392867l-40.95999998 0 0-228.898816c-22.315008 5.51936-38.912 25.7024-38.912 49.69881601L318.37447607 726.16392867l-40.95999998 0 0-179.19999999c0-46.649344 34.84672-85.286912 79.872-91.316224L357.28647609 48.27592867999999l40.95999998 0L398.24647607 455.92418468c44.032 6.907904 77.824 45.099008 77.82400002 91.039744L476.07047607 726.16392867l-40.96 0L435.11047607 546.96392868zM720.79009207 642.75503268c-24.541184 51.910656-58.591232 81.301504-96.239616 83.290112L624.55047607 726.16392867l-40.95999998 0 0-677.88799999 40.95999998 0 0 147.572736c37.648384 1.990656 71.698432 31.381504 96.239616 83.29216001C743.91201209 328.04296867000005 756.64647609 392.61231267 756.64647609 460.94792867S743.91201209 593.85288868 720.79009207 642.75503268zM624.55047607 236.94792868000002l0 448C668.48622009 679.59650468 715.68647609 589.11176869 715.68647609 460.94792867S668.48622009 242.29730467000002 624.55047607 236.94792868000002z"  horiz-adv-x="1024" />

    
    <glyph glyph-name="location" unicode="&#58929;" d="M512.01138321 691.95093821c-127.7921066 0-231.73575787-99.17885083-231.73575788-221.11002522 0-119.52474336 109.70930483-264.61212397 167.7444255-324.62534152 23.82400388-24.63429804 52.07890897-58.34456763 52.36558952-58.67846603 2.76309503-3.31200467 6.93261255-5.26480554 11.38796685-5.33647568l0.23777601 0c4.33562256 0 8.48153074 1.8347558 11.31629589 4.97896792 0.30944614 0.35750776 30.66133694 34.30724002 56.34370515 59.75014555 60.94071304 60.41709943 164.05214749 196.61906744 164.05214749 323.91032602C743.72353174 592.77208738 639.77903753 691.95093821 512.01138321 691.95093821zM558.22935996 166.37006293000002c-16.53388358-16.36693478-34.47334588-35.66391338-45.88492127-48.12355976-10.6257335 12.36436688-27.20683493 31.20940283-42.45487152 46.95660078C405.61323928 231.71975618 309.93610833 367.99255057000005 309.93610833 470.84091299c0 106.42175244 90.65010142 192.9740073 202.07527405 192.97400729 111.40072037 0 202.02721326-86.55225486 202.02721326-192.97400729C714.03775272 352.43590995 616.09753101 223.73822970000003 558.22935996 166.37006293000002zM512.01138321 579.23991859c-62.20463736 0-112.82990762-48.26774295-112.82990762-107.61316287s50.62611319-107.58955435 112.82990762-107.58955436c62.20379443 0 112.82990762 48.24413443 112.82990762 107.58955436S574.21517764 579.23991859 512.01138321 579.23991859zM512.01138321 392.15045285c-45.8377034 0-83.14581445 35.6411478-83.14581445 79.47714578s37.30811106 79.50075513 83.14581445 79.50075513c45.83686047 0 83.14497153-35.66475713 83.14497153-79.50075513S557.84824287 392.15045285 512.01138321 392.15045285z"  horiz-adv-x="1024" />

    
    <glyph glyph-name="star" unicode="&#58992;" d="M513.58391074 754.11228222l87.23944555-268.53627585 282.35006681 0-228.41700815-165.97543771 87.24872021-268.53121746-228.42122442 165.96531931-228.45916682-165.96531931 87.24366101 268.53121746-228.41700813 165.97543771 282.355126 0L513.58391074 754.11228222zM513.58391074 754.11228222"  horiz-adv-x="1024" />

    
    <glyph glyph-name="date" unicode="&#58892;" d="M313.50541422 376.85248246000003l395.36078325 0 0-29.65089317-395.36078325 0 0 29.65089317ZM313.50541422 266.84616891999997l237.21109505 0 0-29.65089317-237.21109505 0 0 29.65089317ZM827.4626541 662.2322469000001L691.36734903 662.2322469000001 691.36734903 718.59581961l-29.65089317 0 0-56.36357271L370.14960745 662.2322469000001 370.14960745 718.59581961l-29.65168342 0 0-56.36357271L165.25332217 662.2322469000001l0-9.88890116 0-19.76278226 0-512.12253707c0-33.06892731 27.08420506-59.8827881 60.48987637-59.88278811l570.89153887 0c33.39460482 0 60.47960012 26.81386156 60.47960012 59.88278811L857.11433752 632.58056425l0 29.65168342L827.4626541 662.2322469000001zM340.49713378 632.58056425l1e-8-27.6478176 29.65168341 0 0 27.6478176 291.56763943 0 0-27.6478176 29.65089318 0 0 27.6478176 136.09530584 0L827.4626541 533.62673662 194.90421457 533.62673662 194.90421457 632.58056425 340.49713378 632.58056425zM787.92681331 90.22613148000005L234.44005614 90.22613148000005c-21.8330486 0-39.53584156 17.70358321-39.53584157 39.53505054L194.90421457 513.85921133l632.55843953 0 0-384.09802853C827.4626541 107.92971467999996 809.76065217 90.22613148000005 787.92681331 90.22613148000005z"  horiz-adv-x="1024" />

    
    <glyph glyph-name="label" unicode="&#58989;" d="M805.78794879 352.78074628L539.19151287 87.00468007999996c-32.7191891-32.61988511-85.76902132-32.61988511-118.48821043 0L213.35208337 293.71857443c-32.71696582 32.61766183-32.71696582 85.50668117 0 118.12286055L479.95000172 677.61750119c20.36399166 21.30219248 24.26797314 30.64121533 45.63538023 30.64121533l270.81092749 0c21.36518381 0 38.68632221-17.26704021 38.68632221-38.5670094L835.08263165 399.7078192C835.08263165 378.40785000000005 822.94753344 369.88993773000004 805.78794879 352.78074628zM242.97580343 323.25188362999995L450.32554008 116.53576599999997c16.36070618-16.3080897 42.88376981-16.3080897 59.24373442 0l29.30728099 29.21612929L272.90855188 412.15565078l-29.93274845-29.84381929C226.61509724 366.00226008000004 226.61509724 339.55923248 242.97580343 323.25188362999995zM796.39630872 650.40153293c0 10.65294909-8.66094036 19.28943333-19.34427311 19.28943333L544.92743106 669.69096626c-10.68333277 0-25.85090867-12.12324094-35.35741498-21.60306858L302.53671852 441.69118328 568.80782222 175.59200887999998l207.3564065 206.71982333c10.43284988 10.40098306 20.23282159 26.03247195 20.23282158 36.68171534L796.3970503 650.40153293zM583.62412883 456.13991674c-32.72067152 32.61766183-32.72067152 85.50297545 0 118.12286056 32.71696582 32.61988511 85.76902132 32.61988511 118.48598714-1e-8 32.72067152-32.61988511 32.72067152-85.50445789 0-118.12286056C669.39315015 423.52003163 616.34035378 423.52003163 583.62412883 456.13991674zM672.48787833 544.7331738c-16.3584829 16.30586642-42.88154653 16.30586642-59.24373442 0-16.36070618-16.31401868-16.36070618-42.75630472 0-59.06439442 16.36218862-16.30586642 42.88525151-16.30586642 59.24373442 0C688.84858453 501.97686907 688.84858453 528.41915511 672.48787833 544.7331738z"  horiz-adv-x="1024" />

    
    <glyph glyph-name="sex" unicode="&#58977;" d="M334.02148437 380.60654296999996C257.56982422 380.60654296999996 195.59375 442.58261719 195.59375 519.03427734 195.59375 595.4859375 257.56982422 657.46201172 334.02148437 657.46201172 410.47314453 657.46201172 472.44921875 595.4859375 472.44921875 519.03427734 472.44921875 442.58261719 410.47314453 380.60654296999996 334.02148437 380.60654296999996M452.55517578 222.40341796999996L353.796875 222.40341796999996 353.796875 342.12363281C442.78613281 351.97177734 512 427.43466797 512 519.03427734 512 617.31796875 432.30517578 697.01279297 334.02148437 697.01279297 235.73779297 697.01279297 156.04296875 617.31796875 156.04296875 519.03427734 156.04296875 427.43466797 225.25683594 351.97177734 314.24609375 342.12363281L314.24609375 222.40341796999996 215.48779297 222.40341796999996C204.80908203 222.40341796999996 195.59375 213.54404296999996 195.59375 202.62802734000002 195.59375 192.02841796999996 204.49267578 182.85263671999996 215.48779297 182.85263671999996L314.24609375 182.85263671999996 314.24609375 83.97568359000002C314.24609375 73.33652343999995 323.10546875 64.20029296999996 334.02148437 64.20029296999996 344.62109375 64.20029296999996 353.796875 73.05966796999996 353.796875 83.97568359000002L353.796875 182.85263671999996 452.55517578 182.85263671999996C463.23388672 182.85263671999996 472.44921875 191.71201171999996 472.44921875 202.62802734000002 472.44921875 213.22763671999996 463.55029297 222.40341796999996 452.55517578 222.40341796999996M689.97851563 103.75107421999996C613.52685547 103.75107421999996 551.55078125 165.72714843999995 551.55078125 242.17880859000002 551.55078125 318.63046875 613.52685547 380.60654296999996 689.97851563 380.60654296999996 766.43017578 380.60654296999996 828.40625 318.63046875 828.40625 242.17880859000002 828.40625 165.72714843999995 766.43017578 103.75107421999996 689.97851563 103.75107421999996M709.75390625 419.08945312L709.75390625 634.2852539099999 761.56542969 582.47373047C769.27783203 574.7613281199999 781.53857422 575.03818359 789.25097656 582.7505859400001 796.765625 590.22568359 797.12158203 602.88193359 789.52783203 610.43613281L705.08691406 694.87705078C701.29003906 698.67392578 696.38574219 700.5328125 691.36279297 700.4141601599999 686.37939453 700.4141601599999 681.39599609 698.634375 677.67822266 694.87705078L593.23730469 610.43613281C585.52490234 602.76328125 585.76220703 590.46298828 593.51416016 582.7505859400001 600.98925781 575.2359375 613.64550781 574.91953125 621.19970703 582.47373047L670.203125 631.4771484400001 670.203125 419.08945312C581.21386719 409.24130859 512 333.77841796999996 512 242.17880859000002 512 143.89511718999995 591.69482422 64.20029296999996 689.97851563 64.20029296999996 788.26220703 64.20029296999996 867.95703125 143.89511718999995 867.95703125 242.17880859000002 867.95703125 333.77841796999996 798.74316406 409.24130859 709.75390625 419.08945312"  horiz-adv-x="1024" />

    
    <glyph glyph-name="evaluate" unicode="&#58911;" d="M525.05175781 212.34960937000005l-39.55078125 1.58203126-0.79101562 0c-44.296875 5.14160156-85.82519531 20.56640625-120.62988282 45.08789062-37.57324219 26.49902344-64.86328125 62.09472656-79.10156249 103.22753906-17.40234375 50.625-15.42480469 107.578125-13.05175782 162.15820313 0.79101563 17.00683594 1.18652344 33.22265625 1.18652344 49.04296875 0 20.17089844 17.00683594 36.78222656 36.78222656 36.38671875 31.24511719-0.79101563 56.16210938-7.91015625 82.265625-20.17089844 7.51464844 19.37988281 18.19335938 36.78222656 31.640625 51.81152344 31.24511719 35.20019531 58.53515625 52.60253906 83.45214844 52.60253906 16.21582031 0 33.61816406-7.11914063 51.81152344-20.96191406 12.65625-9.4921875 25.70800781-22.54394531 35.99121094-35.59570313 12.26074219-15.8203125 20.96191406-32.03613281 27.29003906-49.83398437 28.4765625 11.86523438 56.55761719 21.35742188 89.38476562 22.1484375l1.18652344 0c9.4921875 0 18.19335938-3.95507813 24.91699219-10.67871094 6.72363281-6.72363281 10.67871094-16.21582031 10.67871094-25.70800781 0-29.26757813-0.79101563-58.93066406-1.18652344-87.40722657 0-6.328125-0.39550781-13.05175781-0.39550781-19.37988281 0-4.74609375 0-9.4921875 0-14.23828125 0-27.29003906-0.39550781-55.37109375-9.4921875-83.05664062-30.45410156-89.38476563-115.48828125-152.27050781-211.9921875-156.62109375L525.05175781 212.34960937000005 525.05175781 212.34960937000005 525.05175781 212.34960937000005zM488.26953125 247.54980468999997l36.78222656-1.18652344c82.265625 3.95507813 154.64355469 57.74414063 180.74707032 133.68164063 7.51464844 22.1484375 7.91015625 47.4609375 7.91015624 71.98242187 0 4.74609375 0 9.4921875 0 14.23828125 0 6.72363281 0.39550781 13.05175781 0.39550782 19.77539063 0.39550781 28.4765625 1.18652344 58.13964844 1.18652343 87.01171874 0 0.39550781-0.39550781 1.18652344-0.79101562 1.97753907-0.39550781 0.39550781-0.79101563 0.79101563-1.18652344 0.79101562-34.01367188-1.18652344-61.69921875-12.26074219-94.52636718-27.29003906l-18.98437501-8.70117188-4.35058593 20.56640625c-4.35058594 20.56640625-13.05175781 38.75976563-26.49902344 56.16210938-16.21582031 20.96191406-43.11035156 43.50585938-60.90820313 43.50585937-7.91015625 0-26.10351563-5.14160156-57.74414062-41.1328125-14.23828125-16.21582031-24.52148438-35.59570313-30.45410156-57.34863281l-5.53710938-20.17089844-18.58886718 9.4921875c-30.05859375 15.02929688-53.7890625 24.12597656-85.82519532 24.91699219l0 0c-0.79101563 0-1.97753906-1.18652344-1.97753906-2.37304687 0-16.21582031-0.79101563-32.82714844-1.18652344-50.22949219-1.97753906-51.81152344-3.95507813-105.20507813 11.46972657-149.89746094C340.34960937 306.48046875 407.19042969 257.04199219 488.26953125 247.54980468999997L488.26953125 247.54980468999997 488.26953125 247.54980468999997zM432.10742187 102.3984375c-5.93261719 0-11.46972656 3.1640625-14.63378906 8.70117188-21.75292969 37.96875-56.55761719 86.61621094-101.25 103.62304687-18.19335938 7.11914063-42.71484375 8.30566406-63.67675781 2.76855469-13.05175781-3.1640625-36.38671875-11.86523438-45.48339844-33.61816407-3.55957031-8.70117188-13.44726563-12.65625-22.1484375-9.09667968-8.70117188 3.55957031-12.65625 13.44726563-9.09667968 22.1484375 11.07421875 26.10351563 35.59570313 45.08789063 68.81835937 53.39355468 28.08105469 7.11914063 59.32617188 5.53710938 84.24316406-4.35058593 24.12597656-9.4921875 47.85644531-26.49902344 70.00488282-50.625 17.00683594-18.58886719 33.61816406-41.52832031 48.64746093-68.02734375 4.74609375-8.30566406 1.97753906-18.58886719-6.328125-23.33496094C437.64453125 103.18945312000005 434.87597656 102.3984375 432.10742187 102.3984375L432.10742187 102.3984375 432.10742187 102.3984375zM587.9375 102.3984375c-2.76855469 0-5.53710938 0.79101563-8.30566406 2.37304688-8.30566406 4.74609375-11.07421875 15.02929688-6.328125 23.33496093 15.02929688 26.49902344 31.24511719 49.43847656 48.64746093 68.02734375 22.1484375 24.12597656 45.87890625 41.1328125 70.00488282 50.625 24.52148438 9.4921875 56.16210938 11.07421875 84.24316406 4.35058594 33.22265625-8.30566406 57.74414063-27.29003906 68.81835938-53.39355469 3.55957031-8.70117188-0.39550781-18.58886719-9.09667969-22.1484375-8.70117188-3.55957031-18.58886719 0.39550781-22.1484375 9.09667969-9.09667969 21.75292969-32.43164063 30.45410156-45.48339844 33.61816406-21.35742188 5.14160156-45.48339844 3.95507813-63.67675781-2.76855468-44.69238281-17.40234375-79.89257813-66.04980469-101.25-103.62304688C599.40722656 105.5625 593.87011719 102.3984375 587.9375 102.3984375L587.9375 102.3984375 587.9375 102.3984375zM510.02246094 73.921875c-9.4921875 0-17.00683594 7.51464844-17.00683594 17.00683594l0 138.42773437c0 9.4921875 7.51464844 17.00683594 17.00683594 17.00683594s17.00683594-7.51464844 17.00683594-17.00683594l0-138.42773437C527.02929688 81.43652343999997 519.51464844 73.921875 510.02246094 73.921875L510.02246094 73.921875 510.02246094 73.921875zM510.02246094 73.921875"  horiz-adv-x="1024" />

    
    <glyph glyph-name="chat" unicode="&#58925;" d="M636.73895271 155.05285029000004C634.70787163 155.06470312 632.77456858 154.72841074999997 631.08496354 154.03434724L631.02718693 154.03434724C629.67905859 153.47287477999998 628.38796753 152.57585137 627.26576202 151.34327627000005L544.22330139 60.140938209999945C543.30331437 59.139472299999966 542.33666285 58.16170867000005 541.36482495 57.28764816 533.65679315 50.401084579999974 523.63323873 46.90558053999996 513.71486887 46.89447044999997 503.74983314 46.88261897999996 493.71516866 50.343307279999976 485.995284 57.357275569999956L485.88565583 57.472830159999944C485.10122345 58.20170809000001 484.20716221 59.116508719999956 483.18347344 60.250565710000046L402.81652937 149.98329648000004C401.86469221 151.03661529 400.64915428 151.82326913999998 399.2862123 152.33289069 397.31883357 153.08547292000003 395.06183034 153.47287477999998 392.72927329 153.57731725999997L392.67445954 153.57731725999997C370.87774757 154.62470899000004 355.25279762 154.69433706999996 338.53452809 154.74618931999998L338.47971434 154.74618931999998C317.10818285 154.82174247 293.9233452 154.92544558999998 256.51649762 156.85874931L256.51649762 156.83578707000004C236.13754345 156.83578707000004 217.56745112 165.22677166000005 204.10987491 178.66434919999995L204.07506052 178.63546054000005C190.63229863 192.07822241999997 182.27538703 210.65498187000003 182.27538703 231.0709726L182.27538703 638.5033903C182.27538703 658.87049302 190.64044652 677.44354822 204.07506052 690.88705012L204.10987491 690.91001303 204.13283714 690.94186455C217.57856188 704.37647787 236.14939492 712.73857517 256.51649762 712.73857517L774.59022258 712.73857517C795.0180641 712.73857517 813.58297208 704.38833002 827.03165968 690.94186455L826.9968453 690.91001303C840.43960786 677.45243682 848.82540743 658.8853073600001 848.82540743 638.5033903L848.82540743 231.07023120999997C848.82540743 210.65349977000005 840.48034663 192.07748169 827.03165968 178.63471915000002 813.58297208 165.19195863000004 795.0180641 156.83504634999997 774.59022258 156.83504634999997L774.59022258 156.88171222000005C741.43071852 156.23357450000003 712.97040495 155.77654318999998 690.42481571 155.47580795 662.79782254 155.10470253000005 644.23365595 154.98322221 636.73895271 155.05285029000004L636.73895271 155.05285029000004 636.73895271 155.05285029000004ZM685.73747941 459.88606417C670.06660296 459.88606417 657.36975549 447.18921738 657.36975549 431.52130379 657.36975549 415.85635376 670.06660296 403.1565441 685.73747941 403.1565441 701.40835587 403.1565441 714.10520129 415.85635376 714.10520129 431.52130379 714.10520129 447.1899581 701.40835587 459.88606417 685.73747941 459.88606417L685.73747941 459.88606417 685.73747941 459.88606417ZM515.55484154 459.88606417C499.88692727 459.88606417 487.19008048 447.18921738 487.19008048 431.52130379 487.19008048 415.85635376 499.88692727 403.1565441 515.55484154 403.1565441 531.21979226 403.1565441 543.91663904 415.85635376 543.91663904 431.52130379 543.91663904 447.1899581 531.21979226 459.88606417 515.55484154 459.88606417L515.55484154 459.88606417 515.55484154 459.88606417ZM345.36924216 459.88606417C329.70429075 459.88606417 317.00744397 447.18921738 317.00744397 431.52130379 317.00744397 415.85635376 329.70429075 403.1565441 345.36924216 403.1565441 361.03715438 403.1565441 373.73400118 415.85635376 373.73400118 431.52130379 373.73400118 447.1899581 361.03715438 459.88606417 345.36924216 459.88606417L345.36924216 459.88606417 345.36924216 459.88606417ZM620.2406816 180.16210374000002L620.22883013 180.19099307C625.40208639 182.3324417 631.08496354 183.34502039999995 636.96487552 183.29835385 644.2625446 183.24650297000005 662.62449132 183.36205621 690.0892654 183.72056942999995 712.28819222 184.01538029999995 740.69073053 184.48426172999996 774.31244889 185.14425227000004L774.59022258 185.19610312999998C787.18855262 185.19610312999998 798.65208497 190.3693594 806.97418218 198.68553020000002 815.29553867 207.00688806000005 820.46360924 218.47708550000004 820.46360924 231.06949047L820.46360924 638.5033903C820.46360924 651.13357187 815.31924162 662.61488143 807.0319588 670.88734991L806.97418218 670.88734991C798.65282569 679.20574355 787.18855262 684.37677766 774.59022258 684.37677766L256.51649762 684.37677766C243.88631606 684.37677766 232.40796938 679.22944717 224.12957517 670.94216366L224.07476141 670.88734991C215.79044077 662.61488143 210.64311029 651.13357187 210.64311029 638.5033903L210.64311029 231.07023120999997C210.64311029 218.47782687999995 215.813403 207.00836880999998 224.12957517 198.69219666000004L224.12957517 198.62849498000003C232.40796938 190.34713720000002 243.88631606 185.20277027999998 256.51649762 185.20277027999998L257.23130191 185.14499229C295.21073337 183.16576343999998 317.76891411 183.06724670999995 338.53823235 183.00354299000003L338.59601034 183.00354299000003C356.01500781 182.93391488999998 372.30513467 182.86428611999997 394.01443861 181.82282012999997 399.32991528 181.56801004 404.5468732 180.66506020999998 409.35865406 178.82508753000002 414.79560901 176.74734058 419.77553471 173.5303523 423.98510232 168.80820024000002L423.95325012 168.77931160000003 504.24464104 79.08139521999999 505.0490721 78.30585143999997C507.36977904 76.19921721000003 510.54084217 75.14589838999996 513.71486887 75.14589838999996 516.94074711 75.14589838999996 520.16736472 76.24514234000003 522.5339968 78.3517766L523.36139146 79.16806049000002 523.3265764 79.19102407000003 606.31718614 170.39336146999995C610.29268238 174.74588886000004 614.99779724 177.98065570000006 620.2406816 180.16210374000002L620.2406816 180.16210374000002Z"  horiz-adv-x="1024" />

    
    <glyph glyph-name="male" unicode="&#59032;" d="M804.6548457 399.24761193c-17.01507487 0-30.80795722 13.79288233-30.80795721 30.80499308L773.84688776 607.32730743l-154.83421944-136.76533591c-0.12968838-0.11708952-0.3082868-0.14821477-0.44019846-0.25863517 85.86165547-96.86290973 83.38127906-244.62060678-9.31604989-337.39278361-96.24114799-96.31747901-252.28924738-96.31747901-348.53558279 0-96.24411213 96.32414814-96.24411213 252.48637365 1e-8 348.80385195C343.90424912 564.96303124 471.61513444 575.9057400300001 566.92252817 515.25470436c0.25567103 0.23714392 0.33274219 0.55728798 0.59730636 0.79146776l146.79059426 129.66435814L558.19192737 645.71053026c-17.01507487 0-30.80795722 13.79288233-30.80795722 30.80499308 0 17.01507487 13.79288233 30.81092208 30.80795722 30.81092208l240.55136512 0c0.34163532 0.00296414 0.66252097 0.00296414 1.00415629 0l4.90739691 0c17.01507487 0 30.80795722-13.79584648 30.80795722-30.81092208l0-246.46291833C835.46280291 413.03975342 821.66992058 399.24761193 804.6548457 399.24761193zM565.52115593 437.44260161c-72.1273186 72.1087915-189.07112945 72.1087915-261.19844734 1e-8-72.13028275-72.10582737-72.13028275-189.01258469 0-261.12434031 72.1273186-72.10582737 189.07112945-72.10582737 261.19844734 0C637.65143867 248.43001764999997 637.65143867 365.33677498 565.52115593 437.44260161z"  horiz-adv-x="1024" />

    
    <glyph glyph-name="female" unicode="&#58954;" d="M659.94464112 226.78564453l-113.09051515 0 1e-8 81.9442749c107.8994751 16.31469727 190.58532715 109.3826294 190.58532714 221.73156739 0 123.47259521-100.48370362 224.3270874-224.3270874 224.3270874s-224.3270874-100.48370362-224.3270874-224.3270874c0-112.34893799 83.05664063-205.41687012 190.58532715-221.73156739l0-81.9442749-113.09051514 0c-18.53942872 0-33.37097168-14.83154297-33.37097168-33.37097168 0-18.53942872 14.83154297-33.37097168 33.37097168-33.37097168l113.09051514 0 0-113.09051513c0-18.53942872 14.83154297-33.37097168 33.37097168-33.37097169s33.37097168 14.83154297 33.37097168 33.37097169l0 113.09051513 113.09051513 0c18.53942872 0 33.37097168 14.83154297 33.37097169 33.37097169C693.31561279 211.95410156000003 678.48406982 226.78564453 659.94464112 226.78564453zM356.26879883 530.83227539c0 86.76452637 70.44982911 157.21435547 157.21435547 157.21435547s157.21435547-70.44982911 157.21435547-157.21435547c0-86.76452637-70.44982911-157.21435547-157.21435547-157.21435547S356.26879883 444.06774903 356.26879883 530.83227539z"  horiz-adv-x="1024" />

    
    <glyph glyph-name="star-o" unicode="&#58909;" d="M712.60635185 49.970163670000034c-5.96021699 0-12.22793049 1.70585531-18.62765321 5.07013668L531.61970577 140.39787721000005c-5.08436494 2.67340261-12.52356949 4.20614216-20.4101853 4.20614216s-15.32582036-1.53274031-20.40939505-4.20535191L328.4403423 55.04188162000003c-6.3997235-3.36507162-12.667437-5.07092694-18.62765398-5.07092772-8.25497958 0-15.58509736 3.30262388-20.64100504 9.29920287-4.19507567 4.97606996-8.66444758 14.00413831-6.13412224 28.7592324l31.00814621 180.78902658c2.04022782 11.89434746-3.97216066 30.3978962-12.61447449 38.82203802L170.08038611 435.67523778c-10.36160792 10.0991684-14.27843456 22.12631687-10.74657143 32.99620253 3.53186314 10.86988643 13.7693658 18.29723348 28.08890458 20.37777606l181.52259239 26.37672578c11.94256697 1.73510282 27.68338857 13.17176276 33.02386955 23.99342969L483.14828212 703.90712603c6.40446651 12.97572375 16.63169213 20.41729981 28.06123836 20.4172998 11.4287552 0 21.65598161-7.44157606 28.06044734-20.41650879l81.17910169-164.48775496c5.34127121-10.82166693 21.08130258-22.25753663 33.02386954-23.99342969l181.52259161-26.37672577c14.31874855-2.08054258 24.55625121-9.50788962 28.08890459-20.37777607 3.53186314-10.86909542-0.38496352-22.8962439-10.74578042-32.99620253L720.98701796 307.63966275999996c-8.64152358-8.42335158-14.65312182-26.92769056-12.61368426-38.82203802l31.00814621-180.78902659c2.53032534-14.75351283-1.93904657-23.78237142-6.13491248-28.75844139-5.05590769-5.996579-12.385236-9.29999311-20.64021558-9.29999309zM511.20952048 176.22320661000003c13.03580077 0 25.50956948-2.78327886 35.12417361-7.8383963l161.77166684-85.04849908-30.89589846 180.1360903c-3.82434039 22.29706038 5.50806272 51.01913976 21.70736287 66.80897112L829.79259295 457.85451639l-180.86649359 26.2818688c-22.38638489 3.25282388-46.81932109 21.00383558-56.83153648 41.28991561L511.20952048 689.31882423 430.32368705 525.4255097800001c-10.01221538-20.28687028-34.44436134-38.03709173-56.83153648-41.28991561L192.62644723 457.85451639l130.87576839-127.57314374c16.19930015-15.79062238 25.53170325-44.51270098 21.70736208-66.80897112l-30.89589768-180.1360903 161.77166607 85.04849908c9.61381387 5.05511744 22.08758336 7.8383963 35.12417438 7.8383963z"  horiz-adv-x="1024" />

    
    <glyph glyph-name="quit" unicode="&#58908;" d="M822.98541783 241.71706551a334.88129102 334.88129102 0 0 0-72.3434163-106.8465779 336.15256466 336.15256466 0 0 0-107.30344221-72.04546197A336.58956472 336.58956472 0 0 0 511.9405084 36.386506019999956a336.68888328 336.68888328 0 0 0-131.41791452 26.43851962 335.93406465 335.93406465 0 0 0-107.3034422 72.04546197 334.92101816 334.92101816 0 0 0-72.36328055 106.8465779A333.17301663 333.17301663 0 0 0 174.31803362 372.59866142c0 58.14090605 15.2354203 115.42767559 44.03771436 165.66284896A339.88693065 339.88693065 0 0 0 334.22042363 657.78109767a18.35401339 18.35401339 0 0 0 25.22683668-5.8796404 18.19510408 18.19510408 0 0 0-5.89950466-25.1275188 302.86108531 302.86108531 0 0 1-103.37043909-106.6082143 297.1403542 297.1403542 0 0 1-39.21084691-147.56706275c0-80.0703768 31.30511354-155.33375041 88.15488304-211.94515494a299.60344653 299.60344653 0 0 1 212.8191557-87.77747372c80.36833181 0 155.94952331 31.18593208 212.79929214 87.77747372a297.18008136 297.18008136 0 0 1 88.13501946 211.94515494c0 51.82426493-13.54701018 102.85398473-39.19098334 147.56706274a303.03985818 303.03985818 0 0 1-103.37043978 106.60821431 18.21496766 18.21496766 0 0 0-5.91936755 25.1275188 18.35401339 18.35401339 0 0 0 25.22683669 5.8796404 339.44993061 339.44993061 0 0 0 115.88453921-119.51958729 333.41138092 333.41138092 0 0 0 44.01785079-165.66284896c0-45.38844232-8.91877917-89.40629313-26.53783818-130.88159591z m-311.06477301 100.4703467a18.27455907 18.27455907 0 0 0-18.31428623 18.23483125V713.35959284A18.27455907 18.27455907 0 0 0 511.92064482 731.61428833a18.27455907 18.27455907 0 0 0 18.31428622-18.25469549v-352.93734937a18.27455907 18.27455907 0 0 0-18.31428621-18.23483125z"  horiz-adv-x="1024" />

    
    <glyph glyph-name="time" unicode="&#58966;" d="M717.88895567 591.41655753C662.81218741 646.49332577 589.58384292 676.82538818 511.69447963 676.82538818c-77.89058537 0-151.11770779-30.3320624-206.19447604-85.40883066S220.09117294 463.11266684 220.09117294 385.22208149c0-77.88936328 30.3320624-151.11770779 85.40883066-206.19447605s128.30389067-85.40883064 206.19447603-85.40883064c77.88936328 0 151.11770779 30.3320624 206.19447604 85.40883065S803.29778631 307.33271819000004 803.29778631 385.22208149c0 77.89058537-30.3320624 151.11770779-85.40883064 206.19447604zM511.69447963 120.41902171000004c-146.01307343 0-264.80305976 118.78998634-264.80305977 264.80305978S365.68140619 650.0251412499999 511.69447963 650.0251412499999 776.49753941 531.23515492 776.49753941 385.22208149 657.70755307 120.41902171000004 511.69447963 120.41902171000004zM505.2223361 544.19532905h-26.8002469v-192.24563801h192.24563798v26.80024692h-165.44539108z"  horiz-adv-x="1024" />

    
    <glyph glyph-name="user" unicode="&#58880;" d="M309.51931191 401.87973404c-1.93968772 0-3.46996307-0.28040886-4.6696186-0.76088905 1.63069725 0.49052239 3.37108612 0.76088905 5.15936851 0.76088905h-0.49052239zM845.13035965 188.47932244000003c0.05021095 0.98954201 0.18075943 1.96054459 0.39087295 2.89987563-0.22942543-0.43104172-0.34993172-1.34951591-0.39087295-2.89987563zM880.86047364 582.70868682c0.01081467 0.04016876 0.01081467 0.08960724 0.01081466 0.13054849v0.46039582c0-0.19929886 0-0.39937019-0.01081467-0.59017183zM845.10950278 582.76971245c0-0.04016876 0-0.07956504 0.01081468-0.12050629-0.01081467 0.21011352-0.01081467 0.43104172-0.01081468 0.64965248v-0.52991867zM866.67317581 46.570037840000055c-5.03036499 37.45041847-16.03042602 73.60925674-32.69042014 107.48002053-3.25984956 6.620121-6.70972824 13.1297779-10.36972047 19.51043128-0.01081467 0.01931191-0.01931191 0.04016876-0.04016876 0.06025314-15.85970879 26.85976982-35.32070159 51.79993629-57.99983025 74.05961038l-0.01081466 0.01081466c-4.93071556 4.84033584-10.00974655 9.55939293-15.24018288 14.14094926-37.2905159 32.68037796-80.33984184 56.91063881-126.25041961 71.6502571 8.30952644 4.60009575 16.35023117 9.76023674 24.07113074 15.46960831 8.79000664 6.48030281 17.15978623 13.68055343 25.03054619 21.55054092 41.38927461 41.38927461 64.19045449 96.42974854 64.19045449 154.96953964 0 58.53979111-22.79963494 113.58026504-64.19045449 154.96953965-40.63997269 40.63997269-94.43984985 63.35000038-151.77998542 64.16959763-0.91074944 0.01081467-1.81918145 0.01931191-2.72993088 0.01931189-0.91074944 0-1.81918145-0.01081467-2.72993087-0.01931189-57.34013557-0.81959724-111.13924027-23.53039742-151.77998544-64.16959763-41.38927461-41.38927461-64.19045449-96.42974854-64.19045448-154.96953965 0-58.53979111 22.79963494-113.58026504 64.19045448-154.96953964 7.87075996-7.87075996 16.24053955-15.07023811 25.03054619-21.55054092 7.72089958-5.71014404 15.76005936-10.87105751 24.07113076-15.46960831-45.91057778-14.74039077-88.96067619-38.96987915-126.25041962-71.6502571-5.23043633-4.58001137-10.30946731-9.29906845-15.24018288-14.14094926-22.6999855-22.27975845-42.17951775-47.23923683-58.0500412-74.1299057-3.65999222-6.37988091-7.10987092-12.89031028-10.36972046-19.51043129-16.66076661-33.86999131-27.66005515-70.03037453-32.69042014-107.48002052-1.60906792-11.99964523 6.81015015-23.02983284 18.79975318-24.64044572 0.98954201-0.13054848 1.9798565-0.19929886 2.95085907-0.19929885 0.8891201 0 1.75892829 0.05021095 2.62950897 0.15990258 8.6710453 1.88947678 15.67045212 8.9599514 17.03001023 18.2505226 10.09935379 69.31969642 43.13970566 132.31049538 90.62999725 180.2804947 56.35986328 56.95080757 133.07061196 92.7411747 215.9704399 92.8802204h0.46966554c82.719841-0.28040886 159.24983025-36.04064942 215.50000191-92.8802204 47.48951912-47.96999932 80.53064346-110.95925332 90.62999725-180.2804947 1.36033058-9.26971435 8.32961082-16.3301468 16.97979927-18.24048042 0.01931191 0 0.0293541-0.01081467 0.05021095-0.01081466 0.8698082-0.10969163 1.74038887-0.15990257 2.62950897-0.15990257 0.97100258 0 1.96054459 0.07029533 2.95085907 0.19929885 11.98960305 1.60906792 20.40959358 12.64080048 18.79975319 24.64044571zM518.19294167 350.14005088c-0.43953896 0-0.88062287 0-1.32016183 0.01081467-81.79982185 0.60098648-154.73007202 57.43051529-174.65918541 133.6600113-0.22092819 0.82963943-0.43953896 1.67009353-0.64115524 2.50900269-3.12003135 12.59985923-4.78085518 25.69951057-4.78085517 39.15063858 0 13.44958306 1.66005134 26.69986725 4.78085517 39.52065467 0.19929886 0.85976601 0.42022705 1.7102623 0.64115524 2.55998611 20.03957749 78.13982963 93.65037918 140.24923325 175.97934724 140.24923326h0.94010352c82.330513 0 155.93976975-62.11017608 175.97934724-140.24923326 0.22092819-0.84972382 0.43953896-1.70022011 0.64115523-2.55998611 3.12003135-12.82001495 4.78085518-26.06952667 4.78085519-39.52065467 0-13.44958306-1.66005134-26.55000686-4.78085519-39.15063858-0.19929886-0.84045411-0.42022705-1.67936325-0.64115523-2.50900269-19.93065834-76.23026848-92.86013603-133.06056977-174.65918541-133.6600113-0.75007439-0.01081467-1.50014877-0.01081467-2.26026535-0.01081467z"  horiz-adv-x="1024" />

    
    <glyph glyph-name="goblet2" unicode="&#59041;" d="M864.3855957 423.72084961l-316.40625 317.71933594c-1.49106445 1.49106445-4.16865234 1.48710937-5.65180664 0.00395507l-138.42773437-138.42773437c-83.99794922-84.0019043-88.90224609-219.36445313-11.82172852-309.7894043l-106.65263672-106.65263672-109.25507812 109.25507813a4.06977539 4.06977539 0 0 1-2.85952149 1.15883789 3.96298828 3.96298828 0 0 1-2.8199707-1.24584961l-19.77539062-21.08452147a3.96298828 3.96298828 0 0 1 0.08701171-5.50546876l242.56889649-242.56889649a3.94321289 3.94321289 0 0 1 5.59248047 0l18.46625976 18.46230469a3.94321289 3.94321289 0 0 1 0 5.59248047l-109.2590332 109.25903321 106.65263672 106.65263671a229.25214844 229.25214844 0 0 1 148.80981445-54.8371582c60.80932617 0 117.97998047 23.67509766 160.97563477 66.65888672l72.67851562 72.67851562h1.00854492a3.95507813 3.95507813 0 0 1 3.95507813 3.95507813v1.00854492l62.12241211 62.12241211a3.95507813 3.95507813 0 0 1 0.01186523 5.58457031z m-45.40034179-2.76855469l-35.48496094-34.30634765H377.98217773c-19.8347168 66.82104492-1.32495117 139.77246094 48.62373047 190.98676757l118.50205078 117.19687501 273.87729493-273.87729493z m-69.83481446-69.90205078l-48.61977539-48.61977539c-36.22851563-36.22851563-84.86411133-56.18188477-136.94458008-56.18188477-52.07651367 0-100.72001953 19.95336914-136.96435546 56.18188477-16.38984375 16.38984375-27.58271484 34.02553711-35.690625 48.61977539h358.21933593z"  horiz-adv-x="1024" />

    
    <glyph glyph-name="restaurant" unicode="&#59716;" d="M600.99773574 565.8569648800001c-3.91208364 3.31685289-8.15379757 6.35308525-12.812885 8.31821757-2.33033435 0.97624229-4.66462069 1.63471181-7.21787003 1.83470358-2.56510686 0.18813426-5.0543272-0.14070578-7.50718555-0.90588978-2.43467735-0.77625128-4.75315418-1.86948431-6.88270652-3.29392889-2.12243783-1.42365354-3.99982689-3.17693813-5.61161548-5.14207045-1.62443556-1.96513232-2.99987037-4.14053266-4.21167541-6.36494275a53.8024186 53.8024186 0 0 1-3.14057613-6.81156302c-3.5951019-9.40117513-5.05986045-19.62444877-5.66615847-29.79080792-0.60471677-10.09521563-0.46401178-20.27185103-0.12331424-30.42556242 0.68218377-20.28370854 2.23468634-40.54370284 3.79351164-60.7799829s3.21804314-40.46149283 4.61798243-60.69856313h10.85960942c-1.34697756-15.38905836-2.68288785-30.76705021-3.87097864-46.16717505s-2.27104835-30.80183095-2.88208862-46.23831857c-0.30591525-7.73010054-0.50590702-15.45941085-0.47112626-23.18951216 0.03478074-7.73010054 0.282201-15.4720586 1.10588079-23.1310164 0.81182227-7.50718553 2.19990483-14.98986583 4.56502068-22.20220263 1.18809079-3.61170163 2.58803009-7.14198429 4.42984818-10.4477699a35.30519414 35.30519414 0 0 1 3.1231846-4.71837344c0.58890727-0.75332728 1.27109104-1.61178781 2.14220009-2.37618159 0.87585128-0.77704153 1.90584632-1.37701529 3.06468962-1.3888728 2.30029584-0.022924 3.99350341 2.04734232 5.20609946 3.51763489a33.26654679 33.26654679 0 0 1 3.20618563 4.67094418c1.87738907 3.29392888 3.25914737 6.83606827 4.37056217 10.47069391 2.22441009 7.27241303 3.43621513 14.77801733 4.33024741 22.30812687 0.90588979 7.67081454 1.41179681 15.41277261 1.63471182 23.14287392 0.23635377 7.73010054 0.17074351 15.46020187-0.11699076 23.20215914-0.29405851 7.71745279-0.79996552 15.40091586-1.29480529 23.09544465a1810.74784996 1810.74784996 0 0 0-1.37622505 23.10651191 1755.69094005 1755.69094005 0 0 0-1.85288457 46.34424283h8.58856184l0.00079024 194.06118035zM427.56728419 570.1160687700001c-1.51693082-37.23870747-3.04097537-74.47662392-4.56501993-111.72560685 0.48298301-5.89381648 2.33586759-11.18923968 5.50727171-16.12973788 3.17614712-4.9539362 7.34039403-8.91898236 11.57104145-12.91880925 2.10030485-1.96513232 4.20614216-3.99982689 5.94836025-6.29538051 1.74063607-2.29397235 2.96508962-4.71758243 3.72869238-7.5403858 0.76518402-2.82438386 1.05924253-5.71912022 1.2244528-8.62492384 0.16521026-2.90580363 0.17706776-5.81160648 0.12884825-8.73005708-0.08221001-5.76496822-0.42290677-11.5180797-0.78810802-17.28304793-0.36520125-5.75390173-0.75332728-11.51886996-1.31773006-17.26091417-1.1406623-11.48250796-2.66944986-22.91837766-4.2227419-34.35424737-1.54775958-11.42480243-3.18879487-22.8488154-4.43617244-34.30839857-1.25291004-11.48250796-2.19990483-22.9895204-1.78806455-34.54396212 0.41104926-11.58922245 2.47578234-23.03694967 6.52382875-33.82541633 2.01177057-5.37684296 4.48755293-10.62404666 7.50007104-15.54162085 3.01172787-4.9175742 6.57125725-9.56638538 11.17817319-13.14172425 4.59980143 3.56506339 8.15300732 8.21150307 11.17105868 13.1298675 3.01805137 4.9175742 5.48909071 10.1766354 7.50086206 15.54162087 4.04725617 10.78925691 6.11831274 22.22591687 6.53015224 33.80249156 0.41104926 11.56629845-0.53594554 23.07173041-1.78885557 34.54396211-1.24658655 11.48250796-2.88762263 22.89545365-4.43617166 34.33132336-1.55329282 11.43586971-3.08761362 22.88359614-4.22274268 34.37875183-0.56519303 5.73018748-0.95885153 11.49515571-1.31772929 17.24905667-0.36520125 5.74046374-0.70589802 11.50543195-0.78810879 17.26012393-0.04663824 2.90580363-0.03636201 5.82425423 0.12884825 8.7419146 0.15888677 2.89394612 0.45926877 5.79974973 1.2181293 8.61148583 0.76518402 2.82438386 1.98173284 5.2590612 3.72395016 7.55382381 1.74696032 2.29397235 3.84647415 4.32866693 5.95310248 6.30565675 4.2298564 3.99982689 8.38857008 7.96487306 11.56629845 12.91880925 3.17614712 4.94049819 5.03456495 10.23592141 5.51754797 16.12973788-1.64814982 37.24977396-3.28286239 74.48690017-4.9175742 111.72560686h-8.62492385v-107.06731044c-4.27017116 0.15256251-8.54113257 0.29484877-12.81209397 0.43634477 0.022924 35.54391863 0.04110501 71.08704703 0.06402823 106.63096566h-10.26516889c0.10592425-35.42692789 0.21184852-70.85227452 0.32883925-106.29026889-3.55320588-0.05928601-7.09376478-0.12884826-10.64776092-0.18813427l0.01818101 106.47761292h-10.2422449l0.45926801-106.85467168h-10.64776091c0.10592425 35.61506215 0.21184852 71.24040055 0.31223951 106.85467168l-9.9742729 0.00079025zM512 700.90251343c174.73948586 0 316.90172242-142.16223734 316.90172242-316.90172318S686.73948586 67.09827757999994 512 67.09827757999994 195.09748657 209.26051414000005 195.09748657 384 337.26051414 700.90251343 512 700.90251343m0 19.20707525c-185.62676228 0-336.10958867-150.4828264-336.10958867-336.10958868 0-185.62992402 150.4828264-336.10958867 336.10958867-336.10958867 185.62992402 0 336.10958867 150.47966389 336.10958867 336.10958867 0 185.62676228-150.47966389 336.10958867-336.10958867 336.10958867z"  horiz-adv-x="1024" />

    
    <glyph glyph-name="eye" unicode="&#58893;" d="M514.31742859 592.568573C291.84428406 592.568573 157.43342591 365.46057127999995 157.43342591 365.46057127999995s155.26771545-220.15571594 356.88400268-220.15571594 356.88400268 220.15571594 356.88400269 220.15571594S736.79057312 592.568573 514.31742859 592.568573zM743.74285888 282.03314208999996c-74.15771484-62.5705719-152.95028687-101.96685791-231.74285888-101.96685791s-157.58514404 37.07885742-231.74285888 101.96685791c-25.49171448 23.17428589-50.98342896 46.34857177-71.84028626 71.84028625-4.63485718 4.63485718-6.95228576 9.26971435-11.58714294 13.90457153 2.31742859 4.63485718 6.95228576 9.26971435 9.26971435 13.90457154 18.53942872 25.49171448 41.7137146 50.98342896 67.20542907 74.15771484 71.84028625 64.88800049 150.63285828 104.2842865 238.69514466 104.28428651s166.8548584-39.39628601 238.69514466-104.28428651c25.49171448-23.17428589 46.34857177-48.66600037 67.20542907-74.15771484 2.31742859-4.63485718 6.95228576-9.26971435 9.26971436-13.90457154-2.31742859-4.63485718-6.95228576-9.26971435-11.58714295-13.90457153-20.8568573-23.17428589-44.03114318-48.66600037-71.84028626-71.84028625zM512 504.50628662c-69.52285766 0-122.82371521-55.61828614-122.82371521-122.82371521 0-69.52285766 55.61828614-122.82371521 122.82371521-122.82371521 69.52285766 0 122.82371521 55.61828614 122.82371521 122.82371521S579.20542908 504.50628662 512 504.50628662z m0-213.20343017c-48.66600037 0-88.06228638 39.39628601-88.06228638 88.06228637 0 48.66600037 39.39628601 88.06228638 88.06228638 88.06228638 48.66600037 0 88.06228638-39.39628601 88.06228638-88.06228638 0-46.34857177-39.39628601-88.06228638-88.06228638-88.06228637z"  horiz-adv-x="1024" />

    
    <glyph glyph-name="help" unicode="&#59091;" d="M512.01390457 38.27209854c-190.74213982 0-345.91947556 155.17733574-345.91947556 345.91947555S321.27176475 730.11104965 512.01390457 730.11104965s345.91947556-155.17733574 345.91947556-345.91947556-155.17733574-345.91947556-345.91947556-345.91947555z m0 665.68985939c-176.32078171 0-319.77038384-143.4503746-319.77038383-319.77038384s143.4503746-319.77038384 319.77038383-319.77038383 319.77038384 143.4503746 319.77038384 319.77038383S688.33468628 703.96195793 512.01390457 703.96195793zM519.00481415 271.13041306c-6.40923501 0-11.61417961 5.20417214-11.61417961 11.61417961 0 42.38576889 23.75209808 81.23977661 63.54311943 103.92894744 30.37453652 17.31428147 48.6389637 48.66754532 47.66100882 81.79286958-1.41826629 48.34156037-44.81057167 88.75597001-96.72560691 90.10316848-28.26181412 0.99263191-55.45992851-9.71388817-74.90160942-28.65886688-17.79630661-17.34286309-27.59516716-40.08842468-27.59516716-64.06763077 0-6.40923501-5.20417214-11.61417961-11.61417962-11.61417962-6.40923501 0-11.61417961 5.20417214-11.61417959 11.61417962 0 30.3034687 12.29473115 58.96233559 34.61465834 80.71526528 23.89423371 23.28474998 57.28915215 36.13180161 91.70528413 35.23881912 64.03904915-1.65927887 117.57087708-52.19853401 119.35761452-112.65020371 1.21973993-41.73302651-21.52582169-81.06983184-59.37406541-102.66672134-32.45944977-18.49153519-51.83006287-49.80231285-51.83006286-83.7356472 0.00154495-6.41000748-5.20262718-11.61417961-11.61263467-11.61417961zM519.00481415 190.86859131000006c-8.02602768 0-14.52100754 6.49497986-14.52100754 14.52100754v13.31517219c0 8.02602768 6.49497986 14.52100754 14.52100753 14.52100754 8.02602768 0 14.52100754-6.49497986 14.52100753-14.52100754v-13.31517219c0-8.02680015-6.49497986-14.52100754-14.52100752-14.52100754z"  horiz-adv-x="1024" />

    
    <glyph glyph-name="add" unicode="&#59030;" d="M647.18333435 406.24731445H538.49593354V514.93471527c0 11.97338105-9.73320007 21.70658112-21.70658112 21.70658111-11.97338105 0-21.70658112-9.73320007-21.70658112-21.70658112v-108.68740081H386.31812286c-11.97338105 0-21.70658112-9.73320007-21.70658111-21.70658112 0-12.05062867 9.73320007-21.70658112 21.70658112-21.70658111H495.00552368v-108.68740082c0-12.05062867 9.73320007-21.70658112 21.70658112-21.70658111 12.05062867 0 21.70658112 9.73320007 21.70658111 21.70658112V362.7569046H647.18333435c12.05062867 0 21.70658112 9.73320007 21.70658112 21.70658112 0 12.05062867-9.73320007 21.78382873-21.70658112 21.78382873zM777.57731628 732.30951691H255.92414093c-48.04801941 0-86.98081971-38.93280029-86.9808197-86.98081971V123.67552185c0-48.04801941 38.93280029-86.98081971 86.98081971-86.98081971h521.65317534c48.04801941 0 86.98081971 38.93280029 86.98081971 86.98081971V645.4059448200001c0 47.9707718-38.93280029 86.90357209-86.98081971 86.90357209zM821.06772614 123.67552185c0-24.02400971-19.46640015-43.49040985-43.49040986-43.49040985H255.92414093c-24.02400971 0-43.49040985 19.46640015-43.49040986 43.49040985V645.4059448200001c0 24.02400971 19.46640015 43.49040985 43.49040987 43.49040986h521.65317534c24.02400971 0 43.49040985-19.46640015 43.49040986-43.49040986V123.67552185z"  horiz-adv-x="1024" />

    
    <glyph glyph-name="alarm" unicode="&#58986;" d="M747.35186791 605.01470923A332.17712378 332.17712378 0 0 1 512 702.53210425a331.60858178 331.60858178 0 0 1-235.35186791-97.51739502 331.70745849 331.70745849 0 0 1-97.49267531-235.3271482c0-44.91485619 8.80004906-88.49487281 26.17767334-129.52880883a331.13891578 331.13891578 0 0 1 85.50384521-119.17144775l-62.02056931-61.99584961 27.24060105-27.26531935 65.18463135 65.18463135a330.99060035 330.99060035 0 0 1 190.73364258-60.04303002c44.91485619 0 88.49487281 8.80004906 129.55352783 26.17767333 21.65405273 9.14611793 42.09686303 20.49224829 61.18011475 33.86535669l65.18463134-65.18463135 27.26531935 27.26531935-62.0205686 61.99584961a332.27600122 332.27600122 0 0 1 85.52856421 119.17144775c17.35290528 41.03393531 26.15295434 84.61395263 26.15295434 129.52880883s-8.77532935 88.51959252-26.15295434 129.55352783a331.43554663 331.43554663 0 0 1-71.31500197 105.77362037z m-27.24060106-443.41369605A292.37915063 292.37915063 0 0 0 512 75.40502952999998c-78.60717773 0-152.51770043 30.60241723-208.08654786 86.19598365s-86.19598365 129.47937012-86.19598364 208.08654785A292.42858863 292.42858863 0 0 0 303.91345214 577.79882789 292.37915063 292.37915063 0 0 0 512 663.99481225c78.60717773 0 152.51770043-30.62713623 208.11126685-86.19598436a292.42858863 292.42858863 0 0 0 86.17126465-208.11126684c0-78.60717773-30.60241723-152.49298071-86.17126465-208.08654787zM511.08538842 532.53790283h-38.53729272v-230.03723145h153.67950416v38.53729273h-115.14221144V532.53790283zM141.21142578 597.92028833L279.56500268 736.2738645100001l34.03839111-34.06311011-138.35357689-138.3535769L141.21142578 597.92028833z m569.16046143 104.29046607L744.41027831 736.2738645100001 882.78857422 597.92028833l-34.06311011-34.06311083-138.3535769 138.3535769z"  horiz-adv-x="1024" />

    
    <glyph glyph-name="locked" unicode="&#58901;" d="M732.67852783 502.66305542h-8.50094604V581.30072021C724.88619995 709.5276489299999 632.08029175 805.875 509.51983643 805.875 389.08605957 805.875 296.98876953 709.5276489299999 296.98876953 581.30072021v-78.63766479h-6.37591552c-64.46777344 0-116.18371582-54.54959107-116.18371583-118.30874634v-303.21194458c0-66.59362793 52.42456055-118.30874633 116.18371583-118.30874634h442.06567382c64.46777344 0 116.18371582 54.54959107 116.18371582 118.30874634V384.35430908c-1.41723633 65.88500977-53.8409729 118.30874633-116.18371582 118.30874634zM333.11923218 582.7179565399999c0 110.51641846 74.38595581 188.44464112 176.40142822 188.44464112 104.14050292 0 178.52645874-80.05407714 178.52645874-188.44464112v-78.63684081h-357.05291748v78.63684081h2.12585449z m480.32116699-501.57476806c0-46.04782104-36.13046265-84.30413818-80.05325318-84.30413819H290.61285401c-43.92279052 0-80.05325317 38.25631714-80.05325318 84.30413819V384.35430908c0 46.04864502 36.13046265 84.30413818 80.05325318 84.30413819h442.77429198c43.92279052 0 80.05325317-38.25549316 80.05325318-84.30413819v-303.21194458zM508.10342407 338.30566406c-28.33731079 0-50.29870605-24.08642578-50.29870605-52.42456054 0-19.83636474 9.91818237-36.13046265 26.21228027-46.04864503v-86.4291687c0-14.16906738 12.04321289-26.21228027 26.21228028-26.21228026s26.2114563 12.04321289 26.2114563 26.21228026V239.83245849000002c16.2940979 9.91818237 26.21228027 26.21228027 26.21228026 46.04864503-4.9586792 27.62951661-26.92007446 52.42456055-54.54959106 52.42456054z"  horiz-adv-x="1024" />

    
    <glyph glyph-name="feedback" unicode="&#58910;" d="M740.84607338 731.61428833H283.15392662C248.39249779 731.61428833 222.32142617 705.5432167 222.32142617 670.78178787V94.32142617c0-31.86464288 26.07107163-57.9357145 60.83250045-57.9357145h298.36893104c11.58714316 0 23.17428567 5.79357125 31.86464288 11.58714317l173.80714416 170.9103582c8.6903572 8.6903572 14.48392845 20.27750038 14.48392913 31.86464287V670.78178787C801.67857383 705.5432167 775.60750221 731.61428833 740.84607338 731.61428833zM251.28928375 97.21821212999998V670.78178787C251.28928375 688.16250229 265.77321222 702.64643075 283.15392662 702.64643075h457.69214676c17.38071443 0 31.86464288-14.48392845 31.86464286-31.86464288V268.12857034h-156.42642974c-26.07107163 0-46.348572-20.27750038-46.348572-46.34857134V65.35356924999996H283.15392662c-17.38071443 0-31.86464288 14.48392845-31.86464286 31.86464288z m347.61428834-23.17428567v144.83928658c0 8.6903572 5.79357125 17.38071443 17.38071441 17.38071442h150.6328585L598.90357209 74.04392645999997zM358.47035622 557.80714417h307.05928756c8.6903572 0 14.48392845 5.79357125 14.48392914 14.48392845s-5.79357125 14.48392845-14.48392914 14.48392913H358.47035622c-8.6903572 0-14.48392845-5.79357125-14.48392914-14.48392913s5.79357125-14.48392845 14.48392914-14.48392845zM665.52964378 412.96785758c8.6903572 0 14.48392845 5.79357125 14.48392914 14.48392845s-5.79357125 14.48392845-14.48392914 14.48392847H358.47035622c-8.6903572 0-14.48392845-5.79357125-14.48392914-14.48392847s5.79357125-14.48392845 14.48392914-14.48392845h307.05928756z"  horiz-adv-x="1024" />

    
    <glyph glyph-name="user-add" unicode="&#58895;" d="M828.07619174 162.79090730999997H725.37197037v-102.70422137a23.70097427 23.70097427 0 1 0-47.40194853 0V162.79090730999997h-102.70422136a23.70097427 23.70097427 0 1 0 0 47.40194852H677.97002184v102.70422136a23.70097427 23.70097427 0 0 0 47.40194854 0V210.19285582999998h102.70422136a23.70097427 23.70097427 0 0 0 0-47.40194852zM504.16287767 320.79740218999996c-4.36097945-4.83499905-8.7219582 0-15.80064928 0-118.72608031 0-268.46883508-113.84367942-268.46883508-248.68642232a23.70097427 23.70097427 0 0 0-23.82737959-23.55876811 23.70097427 23.70097427 0 0 0-23.84317972 23.55876811c0 111.42618025 93.08162578 237.73657223 224.32182046 277.68061373C333.80027542 384.82163391 298.75443495 449.88870848 298.75443495 526.20584492 298.75443495 638.95927965 390.11379012 731.61428833 504.16287767 731.61428833s205.40844341-92.65500868 205.40844341-205.40844341c0-112.15300981-92.1967899-204.42880253-205.40844341-205.40844273z m0 363.41493761c-87.59880066 0-158.00649489-71.40313526-158.0064942-158.00649488s70.40769423-158.00649489 158.0064942-158.00649419 158.00649489 71.40313526 158.00649489 158.00649419S591.76167833 684.2123398 504.16287767 684.2123398z"  horiz-adv-x="1024" />

    
    <glyph glyph-name="issue" unicode="&#58882;" d="M797.1523459 498.27819709v-313.47747872a85.89874973 85.89874973 0 0 0-86.08885089-85.95306427H312.93650499a85.95306427 85.95306427 0 0 0-86.08885089 86.08885089V583.06349501c0 47.5253912 38.56346033 86.08885089 86.11600847 86.08885089h333.16656968a13.57868292 13.57868292 0 1 1-1e-8 27.15736648H312.96366257A113.3005319 113.3005319 0 0 1 199.69028762 583.06349501v-398.12699002a113.11043074 113.11043074 0 0 1 113.24621737-113.24621737h398.12699002a113.0561156 113.0561156 0 0 1 113.24621737 113.11043075V498.27819709a13.57868292 13.57868292 0 1 1-27.15736648-1e-8zM521.61370767 374.38629232999995L828.84499234 681.64473459a13.57868292 13.57868292 0 0 1-19.20025775 19.20025774L502.38629233 393.61370767a13.57868292 13.57868292 0 0 1 19.22741534-19.22741534zM376.21316883 248.21316882999997h271.57366234a13.57868292 13.57868292 0 1 1 0 27.15736586H376.21316883a13.57868292 13.57868292 0 1 1 0-27.15736586z"  horiz-adv-x="1024" />

    
    <glyph glyph-name="fans" unicode="&#58898;" d="M782.17296875 305.20640625c-34.00734374-0.35015625-57.6028125-16.7315625-72.63421875-35.23078125-14.7571875 18.73546875-38.39484375 35.23078125-73.26703124 35.23078125-23.0428125 0-42.1790625-7.45875-56.85609377-22.21171875-26.86921875-26.983125-27.421875-67.6265625-27.14343749-68.88796875-0.675-4.1090625-14.55890625-101.7140625 148.54640625-182.9925a19.75640625 19.75640625 0 0 1 8.79609375-2.09249999 19.5328125 19.5328125 0 0 1 9.230625 2.33296874c98.63859375 52.3546875 149.93015625 115.75828125 148.348125 184.8065625 0.04640625 35.78765625-22.325625 89.04937501-85.02046875 89.04515625z m-72.8325-234.1659375c-125.465625 65.85046875-118.445625 134.1478125-117.855 139.94859375-0.0421875 7.26046875 2.80125 30.9740625 15.9384375 44.1534375 7.10015625 7.138125 16.53328125 10.61859375 28.88578125 10.61859375 41.77828125 0 52.51078125-38.15859375 53.5359375-42.37734375a19.67203125 19.67203125 0 0 1 18.781875-15.15375c8.63578125 0.94921876 16.99734375 5.75859375 19.44421875 14.4028125 0.5146875 1.73390625 12.58453126 42.68953125 55.198125 43.12828125 44.03531251 0 44.5078125-47.58328125 44.54578125-51.92859375 1.10953125-49.11890625-40.86703125-99.58359375-118.47515625-142.79203125zM709.49656251 524.02453125c0 119.626875-97.335 217.0040625-217.00406251 217.00406249S275.49265626 643.69359375 275.49265625 524.02453125c0-84.47203126 48.61265625-157.663125 119.23453125-193.48453125-130.12312501-41.70234375-237.59578125-159.87375-237.59578125-279.973125 0-10.88859375 8.83828125-19.73109375 19.726875-19.73109375s19.726875 8.8425 19.726875 19.73109375c0 127.0434375 149.3353125 256.4578125 295.9115625 256.4578125 119.62265625 0 216.99984375 97.335 216.99984375 216.99984375z m-216.99984376-177.5503125c-97.88765625 0-177.54609375 79.66265625-177.54609375 177.55031251s79.6584375 177.54609375 177.54609374 177.54609374 177.5503125-79.6584375 177.55031251-177.54609375-79.66265624-177.5503125-177.5503125-177.5503125z"  horiz-adv-x="1024" />

    
    <glyph glyph-name="menu" unicode="&#58881;" d="M834.734375 645.140625h-647.15625c-12.234375 0-22.359375 10.125-22.359375 22.359375s10.125 22.359375 22.359375 22.359375h648c12.234375 0 22.359375-10.125 22.359375-22.359375s-10.125-22.359375-22.359375-22.359375h-0.84375zM834.734375 361.640625h-647.15625c-12.234375 0-22.359375 10.125-22.359375 22.359375s10.125 22.359375 22.359375 22.359375h648c12.234375 0 22.359375-10.125 22.359375-22.359375s-10.125-22.359375-22.359375-22.359375h-0.84375zM834.734375 78.5625h-647.15625c-12.234375 0-22.359375 10.125-22.359375 22.359375s10.125 22.359375 22.359375 22.359375h647.578125c12.234375 0 22.359375-10.125 22.359375-22.359375-0.421875-12.65625-10.125-22.359375-22.78125-22.359375z"  horiz-adv-x="1024" />

    
    <glyph glyph-name="unconfirmed" unicode="&#58883;" d="M866.34666667 66.66666667000004l-317.86666667 317.86666666 317.86666667 317.86666667-37.33333334 37.44-317.97333333-317.86666667-317.86666667 317.86666667-37.44-37.44 317.97333334-317.86666667-317.97333334-317.86666666 37.44-37.44 317.86666667 317.86666666 317.97333333-317.86666666z"  horiz-adv-x="1024" />

    
    <glyph glyph-name="photo" unicode="&#58916;" d="M667.671875 544.81842041a86.76452637 86.76452637 0 0 1-86.67553711-86.67553711 86.77935791 86.77935791 0 0 1 86.67553711-86.67553711 86.77935791 86.77935791 0 0 1 86.67553711 86.67553711 86.77935791 86.77935791 0 0 1-86.67553711 86.67553711z m0-128.85644531a42.1809082 42.1809082 0 1 0 0 84.34698486 42.1809082 42.1809082 0 0 0 0-84.34698486zM771.49267578 650.9529419h-504.27246094c-40.89056396 0-74.15771484-33.26715088-74.15771484-74.15771485v-385.62011718c0-40.89056396 33.26715088-74.15771484 74.15771484-74.15771485h504.27246094c40.89056396 0 74.15771484 33.26715088 74.15771484 74.15771485v385.62011718c0 40.89056396-33.26715088 74.15771484-74.15771484 74.15771485z m-533.93554687-459.77783203v66.74194336c5.6953125 0 11.390625 2.16540528 15.73626708 6.51104735l118.65234375 118.65234375c5.68048096 5.66564941 7.35644531 5.66564941 13.03692628 0l221.56842041-221.5684204H267.22021484a29.66308594 29.66308594 0 0 0-29.66308593 29.66308594z m563.59863281 0a29.66308594 29.66308594 0 0 0-29.66308594-29.66308594h-102.32281494c-0.25213623 0.26696778-0.32629395 0.63775635-0.59326172 0.88989258l-252.13623047 252.13623047c-23.06304932 23.07788086-52.88928223 23.07788086-75.95233154 0l-102.9309082-102.91607667V576.79522705a29.66308594 29.66308594 0 0 0 29.66308593 29.66308594h504.27246094a29.66308594 29.66308594 0 0 0 29.66308594-29.66308594v-385.62011718z"  horiz-adv-x="1024" />

    
    <glyph glyph-name="sort" unicode="&#58917;" d="M410.17655405 776.40113516a27.44699387 27.44699387 0 0 1-29.89761878-5.88149863L225.64453247 615.88523373a19.85005837 19.85005837 0 1 1 28.1821811-28.18218109l133.5590332 133.55903238v-697.44771991a19.85005837 19.85005837 0 1 1 39.94517834 0V749.9343909300001a27.44699387 27.44699387 0 0 1-17.15437106 26.46674423zM625.83150562 5.924806819999958a27.44699387 27.44699387 0 0 1 29.89761877 5.88149863l154.63440281 154.6344028a19.85005837 19.85005837 0 1 1-28.1821811 28.18218109l-133.55903238-133.31396997V758.75663928a19.85005837 19.85005837 0 1 1-39.94517917 0v-727.34533869a27.44699387 27.44699387 0 0 1 17.15437107-25.48649377z"  horiz-adv-x="1024" />

    
    <glyph glyph-name="portfolio" unicode="&#58884;" d="M954.21980599 601.25893H835.83066237V655.57366297c0 30.02161997-24.92961378 54.31473234-55.48165083 54.31473234H565.42391729c-30.65812074 0-55.48165085-24.39919606-55.48165022-54.31473234v-54.31473297H391.55312346c-54.52689968 0-98.86978638-43.91855328-98.86978701-97.80895157v-347.52942155c0-53.99648195 44.34288733-97.80895219 98.86978702-97.80895219h562.77276557c54.52689968 0 98.86978638 43.91855328 98.86978701 97.80895219V503.44997843c-0.10608367 53.89039892-44.44897037 97.80895219-98.97587006 97.80895157zM537.09963292 655.57366297c0 14.95776816 12.73001544 27.15736648 28.32428437 27.15736586h214.92509425c15.59426891 0 28.32428437-12.19959835 28.32428435-27.15736586v-54.31473297h-271.57366297V655.57366297z m-145.54650946-81.47209883h562.77276558c39.56913155 0 71.71242053-31.71895492 71.71242053-70.65158571v-65.13524609H319.84070292v65.13524609c0 38.93263078 32.14328899 70.65158571 71.71242055 70.65158571z m361.21418816-162.94419766c-7.53192559-30.97637112-40.52388269-54.31473234-79.8808469-54.31473296s-72.24283763 23.33836186-79.88084688 54.31473296h159.76169378z m201.45249437-325.88839531H391.55312346c-39.56913155 0-71.71242053 31.71895492-71.71242054 70.65158571V411.15736648h245.68929803c7.53192559-45.93413926 52.82956408-81.47209883 107.35646377-81.47209882s99.82453754 35.53795957 107.35646315 81.47209882h245.68929803v-255.2368096c0-38.93263078-32.14328899-70.65158571-71.71241991-70.65158571z"  horiz-adv-x="1403" />

    
    <glyph glyph-name="relevance" unicode="&#58973;" d="M630.74023438 337.15429687000005c-19.59960938 0-39.28710938 7.47070313-54.22851563 22.41210938-5.9765625 5.9765625-5.9765625 15.64453125 0 21.53320312 5.9765625 5.9765625 15.64453125 5.9765625 21.53320312 0 18.01757813-18.01757813 47.28515625-17.9296875 65.21484375 0L819.6171875 531.91992188c8.52539063 8.52539063 13.27148438 20.12695313 13.27148438 32.43164062s-4.83398438 23.90625-13.53515626 32.60742187l-91.40624999 91.40625c-18.01757813 18.01757813-47.28515625 18.01757813-65.21484375 0L506.55078125 537.54492188c-17.75390625-17.75390625-17.75390625-47.02148438 0.17578125-65.03906251 5.9765625-5.9765625 5.9765625-15.64453125 0-21.53320312-5.9765625-5.9765625-15.64453125-5.9765625-21.53320313 0-29.8828125 29.8828125-29.8828125 78.48632813 1e-8 108.36914062L641.55078125 710.07421875c29.70703125 29.70703125 78.31054688 29.70703125 108.10546875-0.17578125l91.40625-91.40625c14.50195313-14.50195313 22.41210938-33.66210938 22.41210938-54.140625 0-20.47851563-7.99804688-39.7265625-22.41210938-54.140625L684.70507813 359.390625c-14.85351563-14.85351563-34.36523438-22.23632813-53.96484376-22.23632813zM330.33007812 31.119140620000053c-19.59960938 0-39.28710938 7.47070313-54.22851562 22.41210938l-91.40625 91.40625c-14.50195313 14.50195313-22.41210938 33.66210938-22.41210938 54.140625 0 20.47851563 7.99804688 39.7265625 22.41210938 54.140625l153.80859375 150.73242188c29.79492188 29.79492188 78.3984375 29.79492188 108.19335938-0.08789063 5.9765625-5.9765625 5.9765625-15.64453125-1e-8-21.53320313-5.9765625-5.9765625-15.64453125-5.9765625-21.53320312 0-18.01757813 18.01757813-47.28515625 18.01757813-65.21484375 0L206.140625 231.59765625c-8.61328125-8.61328125-13.359375-20.21484375-13.359375-32.51953125s4.83398438-23.90625 13.53515625-32.60742188l91.40625-91.40624999c18.01757813-18.01757813 47.28515625-17.9296875 65.21484375 0l153.80859375 150.73242187c17.84179688 17.84179688 17.84179688 47.109375-0.08789063 65.12695313-5.9765625 5.9765625-5.9765625 15.64453125 0 21.53320312 5.9765625 5.9765625 15.64453125 5.9765625 21.53320313 0 29.8828125-29.8828125 29.8828125-78.48632813 0-108.36914063l-153.80859375-150.73242187c-14.94140625-14.765625-34.54101563-22.23632813-54.05273438-22.23632813zM360.828125 214.37109375c-3.8671875 0-7.82226563 1.49414063-10.81054688 4.48242188-5.9765625 5.9765625-5.9765625 15.64453125 1e-8 21.53320312l297.07031249 297.0703125c5.9765625 5.9765625 15.64453125 5.9765625 21.53320313 0 5.9765625-5.9765625 5.9765625-15.64453125 0-21.53320313l-297.0703125-297.07031249c-2.98828125-2.98828125-6.85546875-4.48242188-10.72265625-4.48242188z"  horiz-adv-x="1024" />

    
    <glyph glyph-name="statement" unicode="&#58955;" d="M793.25 590.2502929699999c-11.25 0-18.74970703-7.50058594-18.74970703-18.75058594v-487.49941406C774.50029297 63.375 757.62529297 46.5 737 46.5H230.75c-20.62529297 0-37.50029297 16.875-37.50029297 37.50029297v562.5c0 20.62441406 16.875 37.49941406 37.50029297 37.49941406h431.25029297c11.25 0 18.74970703 7.50058594 18.74970703 18.75058594S673.25029297 721.5 662.00029297 721.5H230.75c-41.24970703 0-74.99970703-33.75-74.99970703-74.99970703v-562.5c0-41.25058594 33.75-75.00058594 74.99970703-75.00058594h506.25c41.24970703 0 74.99970703 33.75 74.99970703 75.00058594V571.4997070300001c0 11.25-7.49970703 18.75058594-18.74970703 18.75058594zM862.62470703 772.125c-7.49970703 7.49970703-18.74970703 7.49970703-26.24941406 0L557 492.74970703c-7.49970703-7.49970703-7.49970703-18.74970703 0-26.24941406 3.75029297-3.75029297 9.37529297-5.625 13.12470703-5.625s9.37529297 1.87470703 13.12558594 5.625L862.62470703 744c7.50058594 7.49970703 7.50058594 20.62529297 0 28.125zM455.75 496.5H287c-11.25 0-18.74970703-7.49970703-18.74970703-18.74970703S275.75 458.99970703 287 458.99970703h168.75c11.25 0 18.74970703 7.50058594 18.74970703 18.75058594S467 496.5 455.75 496.5z m225-150.00029297H287c-11.25 0-18.74970703-7.49970703-18.74970703-18.74970703S275.75 309.00029297000003 287 309.00029297000003h393.75c11.25 0 18.74970703 7.49970703 18.74970703 18.74970703S692 346.49970702999997 680.75 346.49970702999997z m0-148.12470703H287c-11.25 0-18.74970703-7.49970703-18.74970703-18.74970703S275.75 160.87470702999997 287 160.87470702999997h393.75c11.25 0 18.74970703 7.50058594 18.74970703 18.75058594S692 198.375 680.75 198.375z"  horiz-adv-x="1024" />

    
    <glyph glyph-name="minus" unicode="&#58903;" d="M641.43302155 362.4710884c11.95175171 0 21.6131115 9.66135979 21.61311149 21.6131115 0 11.93012238-9.66135979 21.6131115-21.61311149 21.6131115H382.07336617c-11.93012238 0-21.6131115-9.68298911-21.6131115-21.6131115 0-11.95175171 9.68298911-21.6131115 21.6131115-21.6131115h259.35965538zM771.11246299 729.89707375H252.39315224c-47.74366379 0-86.45321846-38.70955467-86.45321846-86.45321847v-518.71931076c0-47.74366379 38.70955467-86.45321846 86.45321846-86.45321845h518.71931075c47.74366379 0 86.45321846 38.70955467 86.45321847 86.45321845V643.44385529c-0.00077248 47.74366379-38.71032715 86.45321846-86.45321847 86.45321846z m43.226223-605.17175675c0-23.86101723-19.36520576-43.22622299-43.226223-43.22622298H252.39315224c-23.86101723 0-43.22622299 19.36520576-43.226223 43.22622298V643.44385529c0 23.86101723 19.36520576 43.22622299 43.226223 43.22622298h518.71931075c23.86101723 0 43.22622299-19.36520576 43.226223-43.22622299v-518.71853828z"  horiz-adv-x="1024" />

    
    <glyph glyph-name="add-circle" unicode="&#58956;" d="M527.47224407 574.84706011h-30.94448814v-175.37481604H321.15293989v-30.94448814h175.37481604V193.15293988999997h30.94448814V368.52775593H702.84706011v30.94448814H527.47224407zM512 731.61428833C320.02148932 731.61428833 164.38571167 575.97851068 164.38571167 384S320.02148932 36.38571166999998 512 36.38571166999998 859.61428833 192.02148932 859.61428833 384 703.97851068 731.61428833 512 731.61428833z m0-674.7806774c-180.69127038 0-327.16638907 146.47511868-327.16638907 327.16638907 0 180.67763805 146.47511868 327.16638907 327.16638907 327.16638907s327.16638907-146.488751 327.16638907-327.16638907c0-180.69127038-146.47511868-327.16638907-327.16638907-327.16638907z"  horiz-adv-x="1024" />

    
    </font>
</defs>
</svg>
